<?xml version="1.0" encoding="utf-8"?>
<!-- Generator: Adobe Illustrator 23.0.4, SVG Export Plug-In . SVG Version: 6.00 Build 0)  -->
<svg version="1.1" id="Layer_1" xmlns="http://www.w3.org/2000/svg" xmlns:xlink="http://www.w3.org/1999/xlink" x="0px" y="0px"
	 viewBox="0 0 509.8 59.97" style="enable-background:new 0 0 509.8 59.97;" xml:space="preserve">
<style type="text/css">
	.st0{fill-rule:evenodd;clip-rule:evenodd;fill:#FFFFFF;}
	.st1{fill-rule:evenodd;clip-rule:evenodd;fill:#FECF07;}
</style>
<g>
	<path class="st0" d="M126.18,37.71h-11.14l-4.95-8.44c-0.49-0.79-0.93-1.73-1.3-2.52h-0.2c0.16,0.91,0.2,1.62,0.2,2.48v8.48h-9.42
		V11.4h9.42v8.17c0,1.19-0.04,2.13-0.2,3.31h0.2c0.57-1.5,0.93-2.09,1.42-2.96l4.67-8.52h10.63l-8.44,12.9l9.11,13.1v-26h12.21
		c2.84,0,5.8,0.32,8.28,2.72c1.38,1.34,2.56,3.35,2.56,6.47c0,2.33-0.73,3.79-1.5,4.69c-0.81,0.99-2.15,1.78-3.73,2.09v0.24
		c0.53,0.28,1.06,0.67,1.42,1.22l6.09,8.88h-11.33l-3.9-7.69c-0.12-0.27-0.24-0.39-0.37-0.83l-0.16,0.08v8.44
		C135.75,37.71,126.18,37.71,126.18,37.71z M304.76,36.96l4.28-25.68h10.11l3.17,10.77c0.4,1.38,0.57,2.68,0.61,3.04h0.24
		c0.04-1.14,0.2-1.93,0.53-3.04l3.17-10.77h10.02l4.12,24.47l8.72-24.47h10.88l9.66,26.31h-10.43l-0.89-3.28h-7.47l-0.73,3.28
		h-18.88l-1.22-11.8c-0.08-0.91-0.16-1.5-0.16-2.6h-0.16c-0.12,0.67-0.37,1.7-0.53,2.21l-4.02,12.19h-5.76l-3.61-11.52
		c-0.28-0.95-0.49-1.77-0.53-2.88h-0.28c0,0.51,0,1.54-0.04,2.05l-1.34,12.35H293.9L290,29.9c-0.12-0.28-0.24-0.39-0.36-0.83
		l-0.16,0.08v8.44h-9.58V11.28h12.21c2.84,0,5.8,0.32,8.28,2.72c1.38,1.34,2.56,3.35,2.56,6.47c0,2.33-0.73,3.79-1.5,4.69
		c-0.81,0.99-2.15,1.77-3.73,2.09v0.24c0.53,0.27,1.06,0.67,1.42,1.22L304.76,36.96z M442.45,37.6h-9.01V11.28h9.01l6.05,9.94
		c0.98,1.58,1.6,2.6,2.46,4.66h0.27c-0.39-1.66-0.82-4.3-0.82-6.23v-8.36h9.05V37.6h-9.05l-6.47-10.38
		c-0.58-0.95-1.29-2.33-1.79-3.43h-0.27c0.27,1.42,0.58,3.67,0.58,4.85L442.45,37.6L442.45,37.6z M431.98,25.01
		c0,4.22-1.66,7.46-3.77,9.55c-2.31,2.29-6.09,4.22-11.24,4.22c-5.16,0-8.93-1.93-11.24-4.22c-2.11-2.09-3.77-5.33-3.77-9.55
		c0-4.18,1.66-7.42,3.77-9.51c2.31-2.29,6.09-4.22,11.24-4.22s8.93,1.93,11.24,4.22C430.32,17.59,431.98,20.83,431.98,25.01z
		 M416.97,19.76c-1.74,0-2.88,0.67-3.53,1.34c-0.98,0.99-1.54,2.53-1.54,3.95c0,1.5,0.57,2.96,1.54,3.91
		c0.81,0.79,2.03,1.34,3.53,1.34s2.72-0.55,3.53-1.34c0.89-0.87,1.54-2.25,1.54-3.91s-0.57-3.04-1.54-3.95
		C419.77,20.39,418.59,19.76,416.97,19.76z M390.41,37.6h9.82V11.28h-9.82V37.6z M382.79,37.6h-9.66V19.61l-5.52,0.24v-8.56h20.7
		v8.56l-5.52-0.24L382.79,37.6L382.79,37.6z M355.96,23.04c-0.24-1.02-0.41-2.01-0.53-2.96h-0.37c-0.04,1.1-0.2,2.01-0.45,2.96
		l-1.34,5.05h3.94L355.96,23.04z M289.45,18.5V23h1.14c0.57,0,1.46-0.08,2.07-0.59c0.32-0.27,0.69-0.79,0.69-1.62
		c0-0.59-0.16-1.19-0.53-1.58c-0.33-0.36-0.85-0.71-1.67-0.71H289.45z M278.42,24.54c0,4.22-1.66,7.46-3.77,9.55
		c-2.31,2.29-6.09,4.22-11.24,4.22s-8.93-1.93-11.24-4.22c-2.11-2.09-3.78-5.32-3.78-9.55c0-4.18,1.66-7.42,3.78-9.51
		c2.31-2.29,6.09-4.22,11.24-4.22s8.93,1.93,11.24,4.22C276.75,17.12,278.42,20.35,278.42,24.54z M263.4,19.29
		c-1.74,0-2.88,0.67-3.53,1.34c-0.98,0.99-1.54,2.53-1.54,3.95c0,1.5,0.57,2.96,1.54,3.9c0.81,0.79,2.03,1.34,3.53,1.34
		s2.72-0.55,3.53-1.34c0.89-0.87,1.54-2.25,1.54-3.9c0-1.66-0.57-3.04-1.54-3.95C266.2,19.92,265.03,19.29,263.4,19.29z
		 M239.32,37.71h-9.82V11.4h18.06v7.5h-8.24v2.68h7.22v6.95h-7.22V37.71z M209.28,37.71h-9.37V11.4h9.37l6.29,9.94
		c1.02,1.58,1.66,2.6,2.56,4.66h0.28c-0.4-1.66-0.85-4.3-0.85-6.23v-8.36h9.41v26.31h-9.41l-6.74-10.37
		c-0.61-0.95-1.34-2.33-1.87-3.43h-0.28c0.28,1.42,0.61,3.67,0.61,4.85L209.28,37.71L209.28,37.71z M187.3,37.71h9.82V11.4h-9.82
		V37.71z M184.57,13.1l-2.64,6.71c-1.18-0.79-3.33-1.97-5.52-1.97c-0.53,0-1.34,0.08-1.87,0.47c-0.37,0.28-0.49,0.55-0.49,0.95
		c0,0.55,0.08,1.07,1.58,1.38l3.12,0.67c2.39,0.51,3.82,1.46,4.63,2.25c1.7,1.62,2.07,3.63,2.07,5.21c0,2.25-0.61,4.34-2.44,6.19
		c-1.54,1.54-4.46,3.35-9.53,3.35c-4.14,0-6.9-1.14-9.21-2.05l-0.89-0.36l2.96-7.42l1.05,0.79c1.02,0.75,3.09,1.94,5.48,1.94
		c1.34,0,1.91-0.32,2.11-0.47c0.45-0.36,0.53-0.79,0.53-1.18c0-0.24-0.04-0.63-0.32-0.91c-0.33-0.32-0.85-0.43-1.87-0.63l-2.39-0.43
		c-1.54-0.27-3.21-0.75-4.71-2.25c-1.38-1.38-1.95-2.96-1.95-4.85c0-2.45,0.85-4.54,2.64-6.27c2.07-2.05,5.11-3.39,9.42-3.39
		C178.48,10.81,181.28,11.16,184.57,13.1z M151.78,37.71h9.82V11.4h-9.82V37.71z M135.75,18.62v4.5h1.14c0.57,0,1.46-0.08,2.07-0.59
		c0.32-0.28,0.69-0.79,0.69-1.62c0-0.59-0.16-1.18-0.53-1.58c-0.32-0.36-0.85-0.71-1.66-0.71H135.75z M469.6,33.04
		c0,0.95-0.4,2.06-1.13,2.83c-0.95,0.99-2.4,1.45-3.68,1.45c-1.24,0-2.69-0.46-3.64-1.45c-0.73-0.77-1.13-1.87-1.13-2.83
		c0-0.92,0.4-2.03,1.13-2.79c0.95-0.99,2.4-1.45,3.64-1.45c1.27,0,2.73,0.46,3.68,1.45C469.2,31.02,469.6,32.13,469.6,33.04z
		 M490.01,13.01l-2.54,6.75c-1.13-0.79-3.21-1.99-5.32-1.99c-0.51,0-1.29,0.08-1.8,0.48c-0.35,0.28-0.47,0.56-0.47,0.95
		c0,0.56,0.08,1.07,1.52,1.39l3.01,0.68c2.3,0.51,3.68,1.47,4.46,2.26c1.64,1.63,1.99,3.65,1.99,5.24c0,2.26-0.59,4.37-2.35,6.23
		c-1.48,1.55-4.3,3.37-9.19,3.37c-3.99,0-6.65-1.15-8.88-2.06l-0.86-0.36l2.85-7.46l1.02,0.79c0.98,0.76,2.97,1.95,5.28,1.95
		c1.29,0,1.84-0.32,2.03-0.48c0.43-0.36,0.51-0.79,0.51-1.19c0-0.24-0.04-0.64-0.31-0.91c-0.31-0.32-0.82-0.44-1.8-0.63l-2.31-0.44
		c-1.49-0.28-3.09-0.75-4.54-2.26c-1.33-1.39-1.88-2.98-1.88-4.88c0-2.46,0.82-4.56,2.54-6.31c2-2.06,4.93-3.41,9.07-3.41
		C484.14,10.71,486.84,11.07,490.01,13.01z M509.8,37.43h-17.87v-26.3h17.63v7.21h-8.15v2.45h7.4v6.9h-7.4v2.52h8.38v7.22H509.8z"/>
	<path class="st0" d="M101.41,48.21v3.75l3.76-3.75h1.32l-4.13,4.07l4.26,4.66h-1.35l-3.61-4.01l-0.25,0.25v3.76h-0.98V48.2
		L101.41,48.21L101.41,48.21z M107.7,56.95v-5.44h0.95v0.59c0.09-0.15,0.5-0.72,1.24-0.72c0.29,0,0.61,0.1,0.84,0.22l-0.45,0.85
		c-0.21-0.14-0.41-0.18-0.56-0.18c-0.38,0-0.62,0.16-0.77,0.34c-0.16,0.21-0.32,0.58-0.32,1.47v2.87
		C108.63,56.95,107.7,56.95,107.7,56.95z M111.62,56.95h0.95v-5.44h-0.95V56.95z M111.42,49.45c0-0.37,0.3-0.67,0.68-0.67
		c0.37,0,0.67,0.3,0.67,0.67c0,0.37-0.3,0.67-0.67,0.67C111.72,50.12,111.42,49.82,111.42,49.45z M117.41,52.36l-0.78,0.41
		c-0.13-0.31-0.41-0.55-0.77-0.55c-0.35,0-0.66,0.2-0.66,0.62c0,0.39,0.26,0.51,0.89,0.77c0.79,0.33,1.16,0.58,1.37,0.84
		c0.24,0.29,0.29,0.58,0.29,0.88c0,1.14-0.83,1.78-1.89,1.78c-0.23,0-1.45-0.03-1.92-1.39l0.82-0.34c0.11,0.29,0.42,0.89,1.11,0.89
		c0.62,0,0.9-0.46,0.9-0.87c0-0.51-0.37-0.68-0.89-0.9c-0.66-0.29-1.08-0.5-1.33-0.8c-0.21-0.26-0.25-0.53-0.25-0.8
		c0-0.96,0.67-1.52,1.6-1.52C116.19,51.38,116.97,51.43,117.41,52.36z M119.02,56.95h0.95v-5.44h-0.95V56.95z M118.82,49.45
		c0-0.37,0.3-0.67,0.67-0.67s0.68,0.3,0.68,0.67c0,0.37-0.3,0.67-0.68,0.67C119.13,50.12,118.82,49.82,118.82,49.45z M121.77,56.95
		v-5.44h0.95v0.63c0.17-0.22,0.66-0.76,1.57-0.76c0.65,0,1.24,0.26,1.57,0.75c0.28,0.41,0.32,0.85,0.32,1.46v3.37h-0.95v-3.34
		c0-0.33-0.03-0.71-0.25-1c-0.18-0.24-0.47-0.39-0.9-0.39c-0.33,0-0.69,0.09-0.97,0.42c-0.37,0.43-0.4,1.07-0.4,1.47v2.84
		L121.77,56.95L121.77,56.95z M130.31,52.38h-1.35v4.57h-0.95v-4.57h-0.53v-0.87h0.53v-2.37c0-0.5,0.04-1.13,0.53-1.53
		c0.26-0.22,0.66-0.36,1.1-0.36c0.34,0,0.57,0.08,0.68,0.12v0.92c-0.2-0.08-0.42-0.12-0.62-0.12c-0.21,0-0.46,0.05-0.61,0.29
		c-0.12,0.2-0.12,0.5-0.12,0.79v2.27h1.35v0.86H130.31z M133.73,57.11c-1.67,0-2.91-1.21-2.91-2.86s1.23-2.87,2.91-2.87
		c1.68,0,2.91,1.22,2.91,2.87C136.63,55.9,135.39,57.11,133.73,57.11z M133.73,52.22c-1,0-1.93,0.71-1.93,2.03
		c0,1.34,0.95,2.02,1.93,2.02c0.99,0,1.93-0.69,1.93-2.02C135.66,52.91,134.73,52.22,133.73,52.22z M138.09,56.95v-5.44h0.95v0.59
		c0.09-0.15,0.5-0.72,1.24-0.72c0.29,0,0.61,0.1,0.85,0.22l-0.45,0.85c-0.21-0.14-0.41-0.18-0.56-0.18c-0.38,0-0.62,0.16-0.77,0.34
		c-0.16,0.21-0.32,0.58-0.32,1.47v2.87C139.03,56.95,138.09,56.95,138.09,56.95z M142,56.95v-5.44h0.95v0.58
		c0.31-0.45,0.78-0.71,1.36-0.71c0.99,0,1.39,0.69,1.49,0.88c0.53-0.83,1.28-0.88,1.65-0.88c1.63,0,1.79,1.35,1.79,2.12v3.45h-0.95
		v-3.3c0-0.62-0.08-1.43-0.98-1.43c-1.1,0-1.22,1.05-1.22,1.7v3.03h-0.95v-3.22c0-0.38,0.01-1.51-0.99-1.51
		c-1.09,0-1.21,1.11-1.21,1.77v2.96L142,56.95L142,56.95z M155.27,52.28v-0.77h0.95v5.44h-0.95v-0.76
		c-0.32,0.41-0.91,0.92-1.88,0.92c-1.39,0-2.67-0.97-2.67-2.88c0-1.87,1.27-2.84,2.67-2.84C154.45,51.38,155.02,51.96,155.27,52.28z
		 M153.49,52.22c-0.94,0-1.8,0.68-1.8,2.01c0,1.17,0.66,2.04,1.8,2.04c1.16,0,1.82-0.96,1.82-2.03
		C155.32,52.83,154.34,52.22,153.49,52.22z M159.95,52.38H159v4.57h-0.95v-4.57h-0.58v-0.87h0.58v-1.96H159v1.96h0.95V52.38z
		 M160.85,56.95h0.95v-5.44h-0.95V56.95z M160.65,49.45c0-0.37,0.3-0.67,0.68-0.67c0.37,0,0.68,0.3,0.68,0.67
		c0,0.37-0.31,0.67-0.68,0.67C160.95,50.12,160.65,49.82,160.65,49.45z M166.16,57.11c-1.67,0-2.91-1.21-2.91-2.86
		s1.23-2.87,2.91-2.87c1.68,0,2.91,1.22,2.91,2.87S167.83,57.11,166.16,57.11z M166.16,52.22c-1.01,0-1.93,0.71-1.93,2.03
		c0,1.34,0.95,2.02,1.93,2.02c0.99,0,1.93-0.69,1.93-2.02C168.09,52.91,167.17,52.22,166.16,52.22z M170.53,56.95v-5.44h0.95v0.63
		c0.17-0.22,0.66-0.76,1.57-0.76c0.65,0,1.24,0.26,1.57,0.75c0.28,0.41,0.32,0.85,0.32,1.46v3.37h-0.95v-3.34
		c0-0.33-0.03-0.71-0.25-1c-0.18-0.24-0.47-0.39-0.9-0.39c-0.33,0-0.69,0.09-0.97,0.42c-0.37,0.43-0.4,1.07-0.4,1.47v2.84
		L170.53,56.95L170.53,56.95z M182.15,52.38h-1.35v4.57h-0.95v-4.57h-0.53v-0.87h0.53v-2.37c0-0.5,0.04-1.13,0.53-1.53
		c0.26-0.22,0.66-0.36,1.1-0.36c0.35,0,0.57,0.08,0.68,0.12v0.92c-0.2-0.08-0.42-0.12-0.62-0.12c-0.21,0-0.47,0.05-0.61,0.29
		c-0.12,0.2-0.12,0.5-0.12,0.79v2.27h1.35v0.86H182.15z M182.99,56.95v-5.44h0.95v0.59c0.09-0.15,0.5-0.72,1.24-0.72
		c0.29,0,0.61,0.1,0.85,0.22l-0.45,0.85c-0.21-0.14-0.41-0.18-0.56-0.18c-0.38,0-0.62,0.16-0.77,0.34
		c-0.16,0.21-0.32,0.58-0.32,1.47v2.87C183.93,56.95,182.99,56.95,182.99,56.95z M191.11,52.28v-0.77h0.95v5.44h-0.95v-0.76
		c-0.32,0.41-0.91,0.92-1.88,0.92c-1.39,0-2.67-0.97-2.67-2.88c0-1.87,1.27-2.84,2.67-2.84C190.29,51.38,190.86,51.96,191.11,52.28z
		 M189.34,52.22c-0.94,0-1.8,0.68-1.8,2.01c0,1.17,0.66,2.04,1.8,2.04c1.17,0,1.83-0.96,1.83-2.03
		C191.17,52.83,190.19,52.22,189.34,52.22z M188.42,49.31c0-0.62,0.52-1.13,1.14-1.13s1.14,0.51,1.14,1.13
		c0,0.62-0.52,1.13-1.14,1.13C188.93,50.44,188.42,49.93,188.42,49.31z M189,49.31c0,0.29,0.26,0.55,0.56,0.55
		c0.29,0,0.56-0.26,0.56-0.55s-0.26-0.55-0.56-0.55S189,49.02,189,49.31z M193.86,56.95v-5.44h0.95v0.63
		c0.17-0.22,0.66-0.76,1.57-0.76c0.65,0,1.24,0.26,1.57,0.75c0.28,0.41,0.32,0.85,0.32,1.46v3.37h-0.95v-3.34
		c0-0.33-0.03-0.71-0.25-1c-0.19-0.24-0.48-0.39-0.9-0.39c-0.33,0-0.69,0.09-0.97,0.42c-0.37,0.43-0.4,1.07-0.4,1.47v2.84
		L193.86,56.95L193.86,56.95z M206.2,52.36l-0.78,0.41c-0.13-0.31-0.41-0.55-0.77-0.55c-0.34,0-0.66,0.2-0.66,0.62
		c0,0.39,0.26,0.51,0.89,0.77c0.79,0.33,1.16,0.58,1.38,0.84c0.24,0.29,0.29,0.58,0.29,0.88c0,1.14-0.83,1.78-1.89,1.78
		c-0.22,0-1.45-0.03-1.92-1.39l0.82-0.34c0.11,0.29,0.42,0.89,1.11,0.89c0.62,0,0.9-0.46,0.9-0.87c0-0.51-0.37-0.68-0.89-0.9
		c-0.66-0.29-1.09-0.5-1.34-0.8c-0.21-0.26-0.25-0.53-0.25-0.8c0-0.96,0.68-1.52,1.6-1.52C204.98,51.38,205.76,51.43,206.2,52.36z
		 M207.02,51.51h1.06l1.64,3.67l1.64-3.67h1.06l-2.7,5.79L207.02,51.51z M217.49,55.13l0.79,0.43c-0.16,0.3-0.4,0.63-0.68,0.88
		c-0.5,0.45-1.12,0.67-1.82,0.67c-1.32,0-2.71-0.83-2.71-2.84c0-1.62,1-2.88,2.66-2.88c1.07,0,1.74,0.52,2.08,0.99
		c0.34,0.48,0.54,1.32,0.52,2.04h-4.27c0.01,1.13,0.79,1.85,1.74,1.85c0.45,0,0.81-0.13,1.12-0.39
		C217.18,55.66,217.37,55.39,217.49,55.13z M214.12,53.63h3.23c-0.16-0.85-0.81-1.41-1.61-1.41S214.27,52.82,214.12,53.63z
		 M219.78,56.95v-5.44h0.95v0.63c0.17-0.22,0.66-0.76,1.57-0.76c0.65,0,1.24,0.26,1.57,0.75c0.28,0.41,0.32,0.85,0.32,1.46v3.37
		h-0.95v-3.34c0-0.33-0.03-0.71-0.25-1c-0.18-0.24-0.48-0.39-0.9-0.39c-0.33,0-0.69,0.09-0.97,0.42c-0.37,0.43-0.4,1.07-0.4,1.47
		v2.84L219.78,56.95L219.78,56.95z M229.04,52.36l-0.78,0.41c-0.13-0.31-0.41-0.55-0.77-0.55c-0.34,0-0.66,0.2-0.66,0.62
		c0,0.39,0.26,0.51,0.89,0.77c0.79,0.33,1.16,0.58,1.37,0.84c0.24,0.29,0.29,0.58,0.29,0.88c0,1.14-0.83,1.78-1.89,1.78
		c-0.23,0-1.46-0.03-1.92-1.39l0.82-0.34c0.11,0.29,0.42,0.89,1.11,0.89c0.62,0,0.9-0.46,0.9-0.87c0-0.51-0.37-0.68-0.89-0.9
		c-0.66-0.29-1.08-0.5-1.33-0.8c-0.21-0.26-0.25-0.53-0.25-0.8c0-0.96,0.67-1.52,1.6-1.52C227.82,51.38,228.6,51.43,229.04,52.36z
		 M230.65,47.4h0.95v6.13l2.01-2.02h1.24l-2.36,2.33l2.78,3.1h-1.24l-2.2-2.48l-0.24,0.24v2.24h-0.95L230.65,47.4L230.65,47.4z
		 M240.43,52.28v-0.77h0.95v5.44h-0.95v-0.76c-0.32,0.41-0.91,0.92-1.88,0.92c-1.39,0-2.67-0.97-2.67-2.88
		c0-1.87,1.27-2.84,2.67-2.84C239.61,51.38,240.18,51.96,240.43,52.28z M238.66,52.22c-0.94,0-1.8,0.68-1.8,2.01
		c0,1.17,0.66,2.04,1.8,2.04c1.16,0,1.83-0.96,1.83-2.03C240.49,52.83,239.51,52.22,238.66,52.22z M246.26,56.95v-5.44h0.95v0.58
		c0.31-0.45,0.78-0.71,1.36-0.71c0.99,0,1.39,0.69,1.49,0.88c0.53-0.83,1.29-0.88,1.65-0.88c1.63,0,1.78,1.35,1.78,2.12v3.45h-0.95
		v-3.3c0-0.62-0.08-1.43-0.98-1.43c-1.1,0-1.22,1.05-1.22,1.7v3.03h-0.95v-3.22c0-0.38,0.01-1.51-0.99-1.51
		c-1.09,0-1.2,1.11-1.2,1.77v2.96L246.26,56.95L246.26,56.95z M255.31,59.96l1.74-3.52l-2.52-4.93h1.08l1.94,3.89l1.78-3.89h1.06
		l-4.03,8.45H255.31z M261.41,56.95v-5.44h0.95v0.63c0.17-0.22,0.66-0.76,1.57-0.76c0.65,0,1.24,0.26,1.57,0.75
		c0.28,0.41,0.32,0.85,0.32,1.46v3.37h-0.95v-3.34c0-0.33-0.03-0.71-0.25-1c-0.18-0.24-0.48-0.39-0.9-0.39
		c-0.33,0-0.69,0.09-0.97,0.42c-0.37,0.43-0.4,1.07-0.4,1.47v2.84L261.41,56.95L261.41,56.95z M271.82,52.28v-4.89h0.95v9.55h-0.95
		v-0.75c-0.32,0.41-0.91,0.92-1.88,0.92c-1.39,0-2.67-0.97-2.67-2.88c0-1.87,1.27-2.84,2.67-2.84
		C271,51.38,271.57,51.96,271.82,52.28z M270.05,52.22c-0.94,0-1.8,0.68-1.8,2.01c0,1.17,0.66,2.04,1.8,2.04
		c1.17,0,1.83-0.96,1.83-2.03C271.88,52.83,270.9,52.22,270.05,52.22z M274.58,56.95h0.95v-5.44h-0.95V56.95z M274.38,49.45
		c0-0.37,0.3-0.67,0.67-0.67s0.68,0.3,0.68,0.67c0,0.37-0.3,0.67-0.68,0.67S274.38,49.82,274.38,49.45z M281.53,52.28v-0.77h0.95
		v5.31c0,0.59,0,1.43-0.53,2.14c-0.41,0.55-1.16,1.01-2.2,1.01c-0.94,0-1.59-0.37-1.96-0.73c-0.37-0.37-0.71-0.96-0.71-1.75h0.94
		c0,0.46,0.18,0.86,0.42,1.13c0.4,0.43,0.9,0.52,1.32,0.52c0.67,0,1.14-0.24,1.45-0.76c0.28-0.44,0.31-0.93,0.31-1.39v-0.8
		c-0.32,0.41-0.91,0.92-1.88,0.92c-0.81,0-1.45-0.32-1.88-0.74c-0.37-0.37-0.79-1.05-0.79-2.15c0-1.06,0.4-1.72,0.79-2.11
		c0.46-0.45,1.14-0.73,1.88-0.73C280.46,51.38,281.09,51.72,281.53,52.28z M279.76,52.22c-0.58,0-0.98,0.25-1.24,0.51
		c-0.46,0.47-0.56,1.05-0.56,1.49c0,0.47,0.09,1.11,0.62,1.6c0.3,0.27,0.67,0.45,1.18,0.45c0.5,0,0.9-0.16,1.2-0.46
		c0.37-0.35,0.62-0.93,0.62-1.57s-0.24-1.2-0.58-1.53C280.7,52.4,280.25,52.22,279.76,52.22z M284.28,56.95V47.4h0.95v4.74
		c0.17-0.22,0.66-0.76,1.57-0.76c0.65,0,1.24,0.26,1.57,0.75c0.28,0.41,0.32,0.85,0.32,1.46v3.37h-0.95v-3.34
		c0-0.33-0.03-0.71-0.25-1c-0.19-0.24-0.48-0.39-0.9-0.39c-0.33,0-0.69,0.09-0.97,0.42c-0.37,0.43-0.4,1.07-0.4,1.47v2.84
		L284.28,56.95L284.28,56.95z M294.57,55.13l0.79,0.43c-0.16,0.3-0.4,0.63-0.68,0.88c-0.5,0.45-1.12,0.67-1.83,0.67
		c-1.32,0-2.71-0.83-2.71-2.84c0-1.62,1-2.88,2.66-2.88c1.07,0,1.74,0.52,2.08,0.99c0.34,0.48,0.54,1.32,0.52,2.04h-4.27
		c0.01,1.13,0.79,1.85,1.75,1.85c0.45,0,0.81-0.13,1.12-0.39C294.25,55.66,294.45,55.39,294.57,55.13z M291.2,53.63h3.23
		c-0.16-0.85-0.81-1.41-1.61-1.41S291.34,52.82,291.2,53.63z M298.79,52.38h-0.95v4.57h-0.95v-4.57h-0.58v-0.87h0.58v-1.96h0.95
		v1.96h0.95V52.38z M303.76,55.13l0.79,0.43c-0.16,0.3-0.4,0.63-0.68,0.88c-0.5,0.45-1.12,0.67-1.82,0.67
		c-1.32,0-2.71-0.83-2.71-2.84c0-1.62,1-2.88,2.66-2.88c1.07,0,1.75,0.52,2.08,0.99c0.34,0.48,0.54,1.32,0.52,2.04h-4.27
		c0.01,1.13,0.79,1.85,1.75,1.85c0.45,0,0.81-0.13,1.12-0.39C303.44,55.66,303.64,55.39,303.76,55.13z M300.39,53.63h3.23
		c-0.16-0.85-0.81-1.41-1.62-1.41S300.53,52.82,300.39,53.63z M306.05,56.95v-5.44H307v0.59c0.09-0.15,0.5-0.72,1.24-0.72
		c0.29,0,0.61,0.1,0.85,0.22l-0.45,0.85c-0.21-0.14-0.41-0.18-0.56-0.18c-0.38,0-0.62,0.16-0.77,0.34
		c-0.16,0.21-0.32,0.58-0.32,1.47v2.87C306.99,56.95,306.05,56.95,306.05,56.95z"/>
	<path class="st1" d="M29.21,3.15c0-1.73,1.39-3.13,3.11-3.13c0.19,0,0.38,0.02,0.56,0.06l-0.04,0.38l-2.46,24.89l-6.83-0.08H2.49
		L0.04,0.44L0,0.06C0.18,0.03,0.37,0,0.56,0c1.72,0,3.11,1.4,3.11,3.13c0,0.68-0.22,1.31-0.59,1.83c0.33-0.12,0.68-0.2,1.05-0.2
		c1.72,0,3.11,1.4,3.11,3.13s-1.39,3.13-3.11,3.13c-0.22,0-0.44-0.03-0.65-0.08c0.33,2.3,1.62,3.18,2.99,3.18
		c2.03,0,2.61-2.64,2.94-2.67c0.33-0.03,0.73,2.69,2.94,2.69c1.51,0,2.74-1.22,2.91-2.77c0,0,0.02-0.47,0.06-1.17
		c-0.53,0.45-1.22,0.73-1.97,0.73c-1.72,0-3.11-1.4-3.11-3.12c0-1.73,1.39-3.13,3.11-3.13c0.1,0,0.19,0.01,0.29,0.02
		c-0.26-0.45-0.42-0.97-0.42-1.53c0-1.73,1.4-3.13,3.11-3.13c1.72,0,3.11,1.4,3.11,3.13c0,0.56-0.16,1.08-0.41,1.53
		c0.09-0.01,0.19-0.02,0.29-0.02c1.72,0,3.11,1.4,3.11,3.13s-1.39,3.12-3.11,3.12c-0.79,0-1.5-0.3-2.04-0.79
		c0.03,0.71,0.04,1.2,0.04,1.2c0.16,1.57,1.4,2.79,2.91,2.79c2.02,0,2.67-2.86,2.93-2.87c0.27-0.01,0.95,2.86,2.94,2.89
		c1.73,0.02,2.86-1.13,3.01-3.11c-0.12,0.02-0.24,0.03-0.36,0.03c-1.71,0-3.11-1.4-3.11-3.13s1.4-3.13,3.11-3.13
		c0.38,0,0.73,0.08,1.06,0.2C29.44,4.47,29.21,3.84,29.21,3.15z M66.79,3.15c0-1.73,1.39-3.13,3.11-3.13c0.19,0,0.38,0.02,0.56,0.06
		l-0.04,0.38l-2.46,24.89l-6.83-0.08H40.07L37.62,0.44l-0.04-0.38C37.76,0.03,37.94,0,38.14,0c1.72,0,3.11,1.4,3.11,3.13
		c0,0.68-0.22,1.31-0.6,1.83c0.33-0.12,0.69-0.2,1.06-0.2c1.72,0,3.11,1.4,3.11,3.13s-1.39,3.13-3.11,3.13
		c-0.22,0-0.44-0.03-0.64-0.08c0.33,2.3,1.62,3.18,2.99,3.18c2.02,0,2.61-2.64,2.94-2.67s0.73,2.69,2.94,2.69
		c1.51,0,2.74-1.22,2.91-2.77c0,0,0.02-0.47,0.07-1.17c-0.54,0.45-1.22,0.73-1.98,0.73c-1.72,0-3.11-1.4-3.11-3.12
		c0-1.73,1.39-3.13,3.11-3.13c0.09,0,0.19,0.01,0.29,0.02c-0.26-0.45-0.42-0.97-0.42-1.53c0-1.73,1.39-3.13,3.11-3.13
		s3.11,1.4,3.11,3.13c0,0.56-0.16,1.08-0.42,1.53c0.1-0.01,0.19-0.02,0.29-0.02c1.72,0,3.11,1.4,3.11,3.13s-1.39,3.12-3.11,3.12
		c-0.79,0-1.5-0.3-2.04-0.79c0.03,0.71,0.04,1.2,0.04,1.2c0.16,1.57,1.4,2.79,2.92,2.79c2.02,0,2.67-2.86,2.94-2.87
		c0.27-0.01,0.94,2.86,2.94,2.89c1.72,0.02,2.86-1.13,3.01-3.11c-0.12,0.02-0.24,0.03-0.36,0.03c-1.72,0-3.11-1.4-3.11-3.13
		s1.39-3.13,3.11-3.13c0.37,0,0.73,0.08,1.06,0.2C67.01,4.47,66.79,3.84,66.79,3.15z M47.81,34.84c0-1.73,1.39-3.13,3.11-3.13
		c0.19,0,0.37,0.02,0.56,0.06l-0.05,0.38l-2.46,24.89l-6.83-0.09H21.08l-2.45-24.83l-0.04-0.38c0.18-0.03,0.36-0.06,0.55-0.06
		c1.72,0,3.11,1.4,3.11,3.13c0,0.69-0.23,1.32-0.6,1.83c0.33-0.12,0.68-0.2,1.05-0.2c1.72,0,3.11,1.4,3.11,3.12
		c0,1.73-1.39,3.13-3.11,3.13c-0.22,0-0.43-0.04-0.64-0.08c0.32,2.3,1.61,3.18,2.99,3.18c2.02,0,2.61-2.64,2.94-2.67
		c0.33-0.04,0.73,2.69,2.94,2.69c1.51,0,2.74-1.22,2.91-2.77c0,0,0.02-0.47,0.06-1.17c-0.53,0.45-1.22,0.73-1.98,0.73
		c-1.72,0-3.11-1.4-3.11-3.13c0-1.73,1.4-3.12,3.11-3.12c0.1,0,0.19,0.01,0.29,0.02c-0.25-0.46-0.41-0.98-0.41-1.53
		c0-1.73,1.39-3.13,3.11-3.13s3.11,1.4,3.11,3.13c0,0.56-0.16,1.08-0.41,1.53c0.1-0.01,0.19-0.02,0.28-0.02
		c1.72,0,3.11,1.4,3.11,3.12c0,1.73-1.39,3.13-3.11,3.13c-0.79,0-1.5-0.3-2.04-0.79c0.03,0.71,0.04,1.2,0.04,1.2
		c0.16,1.56,1.4,2.79,2.91,2.79c2.03,0,2.68-2.86,2.94-2.87s0.94,2.86,2.94,2.89c1.72,0.02,2.86-1.14,3.01-3.11
		c-0.12,0.01-0.24,0.02-0.36,0.02c-1.71,0-3.11-1.4-3.11-3.13s1.4-3.13,3.11-3.13c0.37,0,0.73,0.08,1.06,0.2
		C48.03,36.16,47.81,35.53,47.81,34.84z"/>
</g>
</svg>
