<?xml version="1.0" encoding="UTF-8"?>
<svg version="1.1" viewBox="0 0 510 61" xmlns="http://www.w3.org/2000/svg">
<title>krisinformation_undertext_en</title>
<desc>Created with Sketch.</desc>
<g fill="none" fill-rule="evenodd">
<path d="m126.3 38.1h-11.1l-5-8.4c-0.5-0.8-0.9-1.7-1.3-2.5h-0.2c0.2 0.9 0.2 1.6 0.2 2.5v8.5h-9.4v-26.3h9.4v8.2c0 1.2 0 2.1-0.2 3.3h0.2c0.6-1.5 0.9-2.1 1.4-3l4.7-8.5h10.6l-8.4 12.9 9.1 13.1v-26h12.2c2.8 0 5.8 0.3 8.3 2.7 1.4 1.3 2.6 3.4 2.6 6.5 0 2.3-0.7 3.8-1.5 4.7-0.8 1-2.2 1.8-3.7 2.1v0.2c0.5 0.3 1.1 0.7 1.4 1.2l6.1 8.9h-11.3l-3.9-7.7c-0.1-0.3-0.2-0.4-0.4-0.8l-0.2 0.1v8.4h-9.6v-0.1zm178.6-0.7l4.3-25.7h10.1l3.2 10.8c0.4 1.4 0.6 2.7 0.6 3h0.2c0-1.1 0.2-1.9 0.5-3l3.2-10.8h10l4.1 24.5 8.7-24.5h10.9l9.7 26.3h-10.4l-0.9-3.3h-7.5l-0.7 3.3h-18.9l-1.2-11.8c-0.1-0.9-0.2-1.5-0.2-2.6h-0.2c-0.1 0.7-0.4 1.7-0.5 2.2l-4 12.2h-5.8l-3.6-11.5c-0.3-0.9-0.5-1.8-0.5-2.9h-0.3v2.1l-1.3 12.3h-20.4l-3.9-7.7c-0.1-0.3-0.2-0.4-0.4-0.8l-0.2 0.1v8.4h-9.5v-26.3h12.2c2.8 0 5.8 0.3 8.3 2.7 1.4 1.3 2.6 3.4 2.6 6.5 0 2.3-0.7 3.8-1.5 4.7-0.8 1-2.1 1.8-3.7 2.1v0.2c0.5 0.3 1.1 0.7 1.4 1.2l5.6 8.3zm137.6 0.6h-9v-26.3h9l6 9.9c1 1.6 1.6 2.6 2.5 4.7h0.3c-0.4-1.7-0.8-4.3-0.8-6.2v-8.4h9v26.3h-9l-6.5-10.4c-0.6-0.9-1.3-2.3-1.8-3.4h-0.2c0.3 1.4 0.6 3.7 0.6 4.9v8.9h-0.1zm-10.4-12.6c0 4.2-1.7 7.5-3.8 9.5-2.3 2.3-6.1 4.2-11.2 4.2-5.2 0-8.9-1.9-11.2-4.2-2.1-2.1-3.8-5.3-3.8-9.5s1.7-7.4 3.8-9.5c2.3-2.3 6.1-4.2 11.2-4.2 5.2 0 8.9 1.9 11.2 4.2 2.1 2.1 3.8 5.3 3.8 9.5zm-15-5.2c-1.7 0-2.9 0.7-3.5 1.3-1 1-1.5 2.5-1.5 3.9 0 1.5 0.6 3 1.5 3.9 0.8 0.8 2 1.3 3.5 1.3s2.7-0.6 3.5-1.3c0.9-0.9 1.5-2.2 1.5-3.9s-0.6-3-1.5-3.9c-0.7-0.7-1.9-1.3-3.5-1.3zm-26.6 17.8h9.8v-26.3h-9.8v26.3zm-7.6 0h-9.7v-18l-5.5 0.2v-8.6h20.7v8.6l-5.5-0.2v18zm-26.8-14.6c-0.2-1-0.4-2-0.5-3h-0.4c0 1.1-0.2 2-0.4 3l-1.3 5h3.9l-1.3-5zm-66.6-4.5v4.5h1.1c0.6 0 1.5-0.1 2.1-0.6 0.3-0.3 0.7-0.8 0.7-1.6 0-0.6-0.2-1.2-0.5-1.6s-0.9-0.7-1.7-0.7h-1.7zm-11 6c0 4.2-1.7 7.5-3.8 9.5-2.3 2.3-6.1 4.2-11.2 4.2-5.2 0-8.9-1.9-11.2-4.2-2.1-2.1-3.8-5.3-3.8-9.5s1.7-7.4 3.8-9.5c2.3-2.3 6.1-4.2 11.2-4.2 5.2 0 8.9 1.9 11.2 4.2 2.2 2.1 3.8 5.4 3.8 9.5zm-15-5.2c-1.7 0-2.9 0.7-3.5 1.3-1 1-1.5 2.5-1.5 3.9 0 1.5 0.6 3 1.5 3.9 0.8 0.8 2 1.3 3.5 1.3s2.7-0.6 3.5-1.3c0.9-0.9 1.5-2.2 1.5-3.9s-0.6-3-1.5-3.9c-0.7-0.7-1.9-1.3-3.5-1.3zm-24.1 18.4h-9.8v-26.3h18.1v7.5h-8.2v2.7h7.2v6.9h-7.2v9.2h-0.1zm-30 0h-9.4v-26.3h9.4l6.3 9.9c1 1.6 1.7 2.6 2.6 4.7h0.3c-0.4-1.7-0.9-4.3-0.9-6.2v-8.4h9.4v26.3h-9.4l-6.7-10.4c-0.6-0.9-1.3-2.3-1.9-3.4h-0.3c0.3 1.4 0.6 3.7 0.6 4.9v8.9zm-22 0h9.8v-26.3h-9.8v26.3zm-2.7-24.6l-2.6 6.7c-1.2-0.8-3.3-2-5.5-2-0.5 0-1.3 0.1-1.9 0.5-0.4 0.3-0.5 0.6-0.5 0.9 0 0.6 0.1 1.1 1.6 1.4l3.1 0.7c2.4 0.5 3.8 1.5 4.6 2.2 1.7 1.6 2.1 3.6 2.1 5.2 0 2.2-0.6 4.3-2.4 6.2-1.5 1.5-4.5 3.4-9.5 3.4-4.1 0-6.9-1.1-9.2-2.1l-0.9-0.4 3-7.4 1.1 0.8c1 0.7 3.1 1.9 5.5 1.9 1.3 0 1.9-0.3 2.1-0.5 0.4-0.4 0.5-0.8 0.5-1.2 0-0.2 0-0.6-0.3-0.9s-0.9-0.4-1.9-0.6l-2.6-0.3c-1.5-0.3-3.2-0.7-4.7-2.2-1.4-1.4-1.9-3-1.9-4.9 0-2.4 0.9-4.5 2.6-6.3 2.1-2.1 5.1-3.4 9.4-3.4 2.2 0 5 0.4 8.3 2.3zm-32.8 24.6h9.8v-26.3h-9.8v26.3zm-16-19.1v4.5h1.1c0.6 0 1.5-0.1 2.1-0.6 0.3-0.3 0.7-0.8 0.7-1.6 0-0.6-0.2-1.2-0.5-1.6s-0.8-0.7-1.7-0.7h-1.7zm333.8 14.5c0 1-0.4 2.1-1.1 2.8-0.9 1-2.4 1.5-3.7 1.5-1.2 0-2.7-0.5-3.6-1.5-0.7-0.8-1.1-1.9-1.1-2.8s0.4-2 1.1-2.8c0.9-1 2.4-1.5 3.6-1.5 1.3 0 2.7 0.5 3.7 1.5 0.7 0.7 1.1 1.8 1.1 2.8zm20.4-20.1l-2.5 6.8c-1.1-0.8-3.2-2-5.3-2-0.5 0-1.3 0.1-1.8 0.5-0.4 0.3-0.5 0.6-0.5 1 0 0.6 0.1 1.1 1.5 1.4l3 0.7c2.3 0.5 3.7 1.5 4.5 2.3 1.6 1.6 2 3.7 2 5.2 0 2.3-0.6 4.4-2.3 6.2-1.5 1.5-4.3 3.4-9.2 3.4-4 0-6.6-1.2-8.9-2.1l-0.9-0.4 2.9-7.5 1 0.8c1 0.8 3 1.9 5.3 1.9 1.3 0 1.8-0.3 2-0.5 0.4-0.4 0.5-0.8 0.5-1.2 0-0.2 0-0.6-0.3-0.9s-0.8-0.4-1.8-0.6l-2.3-0.4c-1.5-0.3-3.1-0.8-4.5-2.3-1.3-1.4-1.9-3-1.9-4.9 0-2.5 0.8-4.6 2.5-6.3 2-2.1 4.9-3.4 9.1-3.4 2 0 4.7 0.4 7.9 2.3zm19.8 24.4h-17.9v-26.3h17.6v7.2h-8.2v2.4h7.4v6.9h-7.4v2.5h8.4v7.3h0.1z" fill="#fff" fill-rule="nonzero"/>
<path d="m29.3 3.6c0-1.7 1.4-3.1 3.1-3.1 0.2 0 0.4 0 0.6 0.1v0.4l-2.5 24.9-6.8-0.1h-21.1l-2.4-24.8v-0.4c0.2 0 0.4-0.1 0.6-0.1 1.7 0 3.1 1.4 3.1 3.1 0 0.7-0.2 1.3-0.6 1.8 0.3-0.1 0.7-0.2 1.1-0.2 1.7 0 3.1 1.4 3.1 3.1s-1.4 3.1-3.1 3.1c-0.2 0-0.4 0-0.6-0.1 0.3 2.3 1.6 3.2 3 3.2 2 0 2.6-2.6 2.9-2.7 0.3 0 0.7 2.7 2.9 2.7 1.5 0 2.7-1.2 2.9-2.8 0 0 0-0.5 0.1-1.2-0.5 0.4-1.2 0.7-2 0.7-1.7 0-3.1-1.4-3.1-3.1s1.4-3.1 3.1-3.1h0.3c-0.3-0.5-0.4-1-0.4-1.5 0-1.7 1.4-3.1 3.1-3.1s3.1 1.4 3.1 3.1c0 0.6-0.2 1.1-0.4 1.5h0.3c1.7 0 3.1 1.4 3.1 3.1s-1.4 3.1-3.1 3.1c-0.8 0-1.5-0.3-2-0.8v1.2c0.2 1.6 1.4 2.8 2.9 2.8 2 0 2.7-2.9 2.9-2.9 0.3 0 0.9 2.9 2.9 2.9 1.7 0 2.9-1.1 3-3.1h-0.4c-1.7 0-3.1-1.4-3.1-3.1s1.4-3.1 3.1-3.1c0.4 0 0.7 0.1 1.1 0.2-0.5-0.4-0.7-1-0.7-1.7zm37.6 0c0-1.7 1.4-3.1 3.1-3.1 0.2 0 0.4 0 0.6 0.1v0.4l-2.5 24.9-6.8-0.1h-21.1l-2.4-24.8v-0.4c0.2 0 0.4-0.1 0.6-0.1 1.7 0 3.1 1.4 3.1 3.1 0 0.7-0.2 1.3-0.6 1.8 0.3-0.1 0.7-0.2 1.1-0.2 1.7 0 3.1 1.4 3.1 3.1s-1.4 3.1-3.1 3.1c-0.2 0-0.4 0-0.6-0.1 0.3 2.3 1.6 3.2 3 3.2 2 0 2.6-2.6 2.9-2.7 0.3 0 0.7 2.7 2.9 2.7 1.5 0 2.7-1.2 2.9-2.8 0 0 0-0.5 0.1-1.2-0.5 0.4-1.2 0.7-2 0.7-1.7 0-3.1-1.4-3.1-3.1s1.4-3.1 3.1-3.1h0.3c-0.3-0.5-0.4-1-0.4-1.5 0-1.7 1.4-3.1 3.1-3.1s3.1 1.4 3.1 3.1c0 0.6-0.2 1.1-0.4 1.5h0.3c1.7 0 3.1 1.4 3.1 3.1s-1.4 3.1-3.1 3.1c-0.8 0-1.5-0.3-2-0.8v1.2c0.2 1.6 1.4 2.8 2.9 2.8 2 0 2.7-2.9 2.9-2.9 0.3 0 0.9 2.9 2.9 2.9 1.7 0 2.9-1.1 3-3.1h-0.4c-1.7 0-3.1-1.4-3.1-3.1s1.4-3.1 3.1-3.1c0.4 0 0.7 0.1 1.1 0.2-0.5-0.4-0.7-1-0.7-1.7zm-19 31.7c0-1.7 1.4-3.1 3.1-3.1 0.2 0 0.4 0 0.6 0.1v0.4l-2.5 24.9-6.8-0.1h-21.1l-2.4-24.8v-0.4c0.2 0 0.4-0.1 0.6-0.1 1.7 0 3.1 1.4 3.1 3.1 0 0.7-0.2 1.3-0.6 1.8 0.3-0.1 0.7-0.2 1.1-0.2 1.7 0 3.1 1.4 3.1 3.1s-1.4 3.1-3.1 3.1c-0.2 0-0.4 0-0.6-0.1 0.3 2.3 1.6 3.2 3 3.2 2 0 2.6-2.6 2.9-2.7 0.3 0 0.7 2.7 2.9 2.7 1.5 0 2.7-1.2 2.9-2.8 0 0 0-0.5 0.1-1.2-0.5 0.5-1.2 0.7-2 0.7-1.7 0-3.1-1.4-3.1-3.1s1.4-3.1 3.1-3.1h0.3c-0.3-0.5-0.4-1-0.4-1.5 0-1.7 1.4-3.1 3.1-3.1s3.1 1.4 3.1 3.1c0 0.6-0.2 1.1-0.4 1.5h0.3c1.7 0 3.1 1.4 3.1 3.1s-1.4 3.1-3.1 3.1c-0.8 0-1.5-0.3-2-0.8v1.2c0.2 1.6 1.4 2.8 2.9 2.8 2 0 2.7-2.9 2.9-2.9 0.3 0 0.9 2.9 2.9 2.9 1.7 0 2.9-1.1 3-3.1h-0.4c-1.7 0-3.1-1.4-3.1-3.1s1.4-3.1 3.1-3.1c0.4 0 0.7 0.1 1.1 0.2-0.5-0.4-0.7-1.1-0.7-1.7z" fill="#FECF07"/>
<g transform="translate(100 47)" fill="#fff" fill-rule="nonzero">
<polygon points="5.1 2.6 1.6 2.6 1.6 5.2 5 5.2 5 6.1 1.6 6.1 1.6 9.5 5.1 9.5 5.1 10.4 0.6 10.4 0.6 1.7 5.1 1.7"/>
<path d="m6.6 5h0.9v0.6c0.3-0.4 0.8-0.7 1.3-0.7 1 0 1.4 0.7 1.5 0.9 0.5-0.8 1.3-0.9 1.6-0.9 1.6 0 1.8 1.3 1.8 2.1v3.4h-0.9v-3.3c0-0.6-0.1-1.4-1-1.4-1.1 0-1.2 1-1.2 1.7v3h-0.9v-3.2c0-0.4 0-1.5-1-1.5-1.1 0-1.2 1.1-1.2 1.8v2.9h-0.9v-5.4z"/>
<path d="m20.3 9c-0.2 0.3-0.4 0.6-0.7 0.9-0.5 0.4-1.1 0.7-1.8 0.7-1.3 0-2.7-0.8-2.7-2.8 0-1.6 1-2.9 2.6-2.9 1.1 0 1.7 0.5 2 1s0.5 1.3 0.5 2h-4.2c0 1.1 0.8 1.8 1.7 1.8 0.4 0 0.8-0.1 1.1-0.4 0.2-0.2 0.4-0.5 0.6-0.7l0.9 0.4zm-0.9-1.9c-0.2-0.8-0.8-1.4-1.6-1.4s-1.4 0.6-1.6 1.4h3.2z"/>
<path d="m21.8 5h0.9v0.6c0.1-0.1 0.5-0.7 1.2-0.7 0.3 0 0.6 0.1 0.8 0.2l-0.4 0.8c-0.2-0.1-0.4-0.2-0.5-0.2-0.4 0-0.6 0.2-0.8 0.3-0.2 0.2-0.3 0.6-0.3 1.5v2.8h-0.9v-5.3z"/>
<path d="m29.5 5h0.9v5.3c0 0.6 0 1.4-0.5 2.1-0.4 0.5-1.1 1-2.2 1-0.9 0-1.6-0.4-1.9-0.7-0.4-0.4-0.7-0.9-0.7-1.7h0.9c0 0.5 0.2 0.9 0.4 1.1 0.4 0.4 0.9 0.5 1.3 0.5 0.7 0 1.1-0.2 1.4-0.8 0.3-0.4 0.3-0.9 0.3-1.4v-0.8c-0.3 0.4-0.9 0.9-1.8 0.9-0.8 0-1.4-0.3-1.8-0.7s-0.8-1-0.8-2.1 0.4-1.7 0.8-2.1c0.5-0.4 1.1-0.7 1.8-0.7 0.8 0 1.4 0.3 1.8 0.9v-0.8h0.1zm-3 1.2c-0.5 0.5-0.5 1-0.5 1.5s0.1 1.1 0.6 1.6c0.3 0.3 0.7 0.4 1.2 0.4s0.9-0.2 1.2-0.5c0.4-0.4 0.6-0.9 0.6-1.6 0-0.6-0.2-1.2-0.6-1.5-0.3-0.3-0.7-0.5-1.2-0.5-0.7 0.1-1.1 0.3-1.3 0.6z"/>
<path d="m36.9 9c-0.2 0.3-0.4 0.6-0.7 0.9-0.5 0.4-1.1 0.7-1.8 0.7-1.3 0-2.7-0.8-2.7-2.8 0-1.6 1-2.9 2.6-2.9 1.1 0 1.7 0.5 2 1s0.5 1.3 0.5 2h-4.2c0 1.1 0.8 1.8 1.7 1.8 0.4 0 0.8-0.1 1.1-0.4 0.2-0.2 0.4-0.5 0.6-0.7l0.9 0.4zm-0.9-1.9c-0.2-0.8-0.8-1.4-1.6-1.4s-1.4 0.6-1.6 1.4h3.2z"/>
<path d="m38.4 5h0.9v0.6c0.2-0.2 0.7-0.8 1.5-0.8 0.6 0 1.2 0.3 1.5 0.7s0.3 0.8 0.3 1.4v3.3h-0.9v-3.2c0-0.3 0-0.7-0.2-1-0.2-0.2-0.5-0.4-0.9-0.4-0.3 0-0.7 0.1-0.9 0.4-0.4 0.4-0.4 1.1-0.4 1.5v2.8h-0.9v-5.3z"/>
<path d="m48.7 6.5c-0.5-0.6-1.2-0.8-1.7-0.8-1 0-1.9 0.7-1.9 2s0.9 2 1.9 2c0.6 0 1.2-0.2 1.7-0.8v1.1c-0.6 0.4-1.2 0.6-1.7 0.6-1.7 0-2.9-1.2-2.9-2.8 0-1.7 1.2-2.9 2.9-2.9 0.9 0 1.4 0.3 1.7 0.5v1.1z"/>
<polygon points="51.9 9.9 49.4 5 50.5 5 52.4 8.9 54.2 5 55.2 5 51.2 13.4 50.2 13.4"/>
<path d="m59.7 2.3c0.4 0 0.7 0.3 0.7 0.7s-0.3 0.7-0.7 0.7-0.7-0.3-0.7-0.7 0.3-0.7 0.7-0.7zm0.5 2.7v5.4h-0.9v-5.4h0.9z"/>
<path d="m61.9 5h0.9v0.6c0.2-0.2 0.7-0.8 1.5-0.8 0.6 0 1.2 0.3 1.5 0.7s0.3 0.8 0.3 1.4v3.3h-0.9v-3.2c0-0.3 0-0.7-0.2-1-0.2-0.2-0.5-0.4-0.9-0.4-0.3 0-0.7 0.1-0.9 0.4-0.4 0.4-0.4 1.1-0.4 1.5v2.8h-0.9v-5.3z"/>
<path d="m69 5.8v4.5h-0.9v-4.5h-0.5v-0.8h0.5v-2.4c0-0.5 0-1.1 0.5-1.5 0.3-0.2 0.6-0.4 1.1-0.4 0.3 0 0.6 0.1 0.7 0.1v0.9c-0.2-0.1-0.4-0.1-0.6-0.1s-0.5 0.1-0.6 0.3-0.1 0.5-0.1 0.8v2.2h1.3v0.9h-1.4z"/>
<path d="m70.8 7.7c0-1.6 1.2-2.8 2.9-2.8s2.9 1.2 2.9 2.8-1.2 2.8-2.9 2.8-2.9-1.2-2.9-2.8zm1 0c0 1.3 0.9 2 1.9 2s1.9-0.7 1.9-2-0.9-2-1.9-2-1.9 0.7-1.9 2z"/>
<path d="m78 5h0.9v0.6c0.1-0.1 0.5-0.7 1.2-0.7 0.3 0 0.6 0.1 0.8 0.2l-0.4 0.8c-0.2-0.1-0.4-0.2-0.5-0.2-0.4 0-0.6 0.2-0.8 0.3-0.2 0.2-0.3 0.6-0.3 1.5v2.8h-0.9v-5.3z"/>
<path d="m81.8 5h0.9v0.6c0.3-0.4 0.8-0.7 1.3-0.7 1 0 1.4 0.7 1.5 0.9 0.5-0.8 1.3-0.9 1.6-0.9 1.6 0 1.8 1.3 1.8 2.1v3.4h-0.9v-3.3c0-0.6-0.1-1.4-1-1.4-1.1 0-1.2 1-1.2 1.7v3h-0.9v-3.2c0-0.4 0-1.5-1-1.5-1.1 0-1.2 1.1-1.2 1.8v2.9h-0.9v-5.4z"/>
<path d="m94.9 5h0.9v5.4h-0.9v-0.8c-0.3 0.4-0.9 0.9-1.8 0.9-1.4 0-2.6-1-2.6-2.9s1.2-2.8 2.6-2.8c1 0 1.6 0.6 1.8 0.9v-0.7zm-3.6 2.7c0 1.2 0.6 2 1.8 2 1.1 0 1.8-0.9 1.8-2 0-1.4-1-2-1.8-2-0.9 0-1.8 0.6-1.8 2z"/>
<polygon points="98.5 5.8 98.5 10.3 97.6 10.3 97.6 5.8 97 5.8 97 5 97.6 5 97.6 3 98.5 3 98.5 5 99.4 5 99.4 5.9 98.5 5.9"/>
<path d="m100.8 2.3c0.4 0 0.7 0.3 0.7 0.7s-0.3 0.7-0.7 0.7-0.7-0.3-0.7-0.7 0.3-0.7 0.7-0.7zm0.5 2.7v5.4h-0.9v-5.4h0.9z"/>
<path d="m102.7 7.7c0-1.6 1.2-2.8 2.9-2.8s2.9 1.2 2.9 2.8-1.2 2.8-2.9 2.8-2.9-1.2-2.9-2.8zm1 0c0 1.3 0.9 2 1.9 2s1.9-0.7 1.9-2-0.9-2-1.9-2-1.9 0.7-1.9 2z"/>
<path d="m109.9 5h0.9v0.6c0.2-0.2 0.7-0.8 1.5-0.8 0.6 0 1.2 0.3 1.5 0.7s0.3 0.8 0.3 1.4v3.3h-0.9v-3.2c0-0.3 0-0.7-0.2-1-0.2-0.2-0.5-0.4-0.9-0.4-0.3 0-0.7 0.1-0.9 0.4-0.4 0.4-0.4 1.1-0.4 1.5v2.8h-0.9v-5.3z"/>
<path d="m120 5.8v4.5h-1v-4.5h-0.5v-0.8h0.5v-2.4c0-0.5 0-1.1 0.5-1.5 0.3-0.2 0.6-0.4 1.1-0.4 0.3 0 0.6 0.1 0.7 0.1v0.9c-0.2-0.1-0.4-0.1-0.6-0.1s-0.5 0.1-0.6 0.3-0.1 0.5-0.1 0.8v2.2h1.3v0.9h-1.3z"/>
<path d="m122.1 5h0.9v0.6c0.1-0.1 0.5-0.7 1.2-0.7 0.3 0 0.6 0.1 0.8 0.2l-0.4 0.8c-0.2-0.1-0.4-0.2-0.5-0.2-0.4 0-0.6 0.2-0.8 0.3-0.2 0.2-0.3 0.6-0.3 1.5v2.8h-0.9v-5.3z"/>
<path d="m125.3 7.7c0-1.6 1.2-2.8 2.9-2.8s2.9 1.2 2.9 2.8-1.2 2.8-2.9 2.8-2.9-1.2-2.9-2.8zm1 0c0 1.3 0.9 2 1.9 2s1.9-0.7 1.9-2-0.9-2-1.9-2-1.9 0.7-1.9 2z"/>
<path d="m132.5 5h0.9v0.6c0.3-0.4 0.8-0.7 1.3-0.7 1 0 1.4 0.7 1.5 0.9 0.5-0.8 1.3-0.9 1.6-0.9 1.6 0 1.8 1.3 1.8 2.1v3.4h-0.9v-3.3c0-0.6-0.1-1.4-1-1.4-1.1 0-1.2 1-1.2 1.7v3h-0.9v-3.2c0-0.4 0-1.5-1-1.5-1.1 0-1.2 1.1-1.2 1.8v2.9h-0.9v-5.4z"/>
<path d="m148.5 3.4c-0.1-0.2-0.3-0.5-0.5-0.7-0.2-0.1-0.5-0.3-1-0.3-0.9 0-1.5 0.5-1.5 1.3 0 0.3 0.1 0.5 0.3 0.8 0.3 0.3 0.6 0.4 0.9 0.5l0.8 0.4c0.5 0.2 1 0.5 1.3 0.8 0.4 0.4 0.6 0.9 0.6 1.6 0 1.6-1.2 2.7-2.7 2.7-0.6 0-1.3-0.1-1.9-0.7-0.4-0.4-0.7-1-0.8-1.5l0.9-0.3c0.1 0.5 0.3 0.8 0.5 1.1 0.4 0.4 0.8 0.5 1.2 0.5 1.2 0 1.7-0.8 1.7-1.7 0-0.4-0.1-0.7-0.4-1-0.2-0.2-0.6-0.4-1-0.6l-0.8-0.4c-0.3-0.2-0.8-0.3-1.2-0.7s-0.6-0.8-0.6-1.4c0-1.3 1-2.2 2.4-2.2 0.5 0 1 0.1 1.4 0.4 0.4 0.2 0.6 0.6 0.8 1l-0.4 0.4z"/>
<polygon points="151.4 5 153 8.7 154.7 4.6 156.4 8.7 158 5 159 5 156.3 10.8 154.6 6.8 152.9 10.8 150.2 5"/>
<path d="m164.8 9c-0.2 0.3-0.4 0.6-0.7 0.9-0.5 0.4-1.1 0.7-1.8 0.7-1.3 0-2.7-0.8-2.7-2.8 0-1.6 1-2.9 2.6-2.9 1.1 0 1.7 0.5 2 1s0.5 1.3 0.5 2h-4.2c0 1.1 0.8 1.8 1.7 1.8 0.4 0 0.8-0.1 1.1-0.4 0.2-0.2 0.4-0.5 0.6-0.7l0.9 0.4zm-0.9-1.9c-0.2-0.8-0.8-1.4-1.6-1.4s-1.4 0.6-1.6 1.4h3.2z"/>
<path d="m170.4 0.9h0.9v9.5h-0.9v-0.8c-0.3 0.4-0.9 0.9-1.8 0.9-1.4 0-2.6-1-2.6-2.9s1.2-2.8 2.6-2.8c1 0 1.6 0.6 1.8 0.9v-4.8zm-3.5 6.8c0 1.2 0.6 2 1.8 2 1.1 0 1.8-0.9 1.8-2 0-1.4-1-2-1.8-2-1 0-1.8 0.6-1.8 2z"/>
<path d="m173.4 2.3c0.4 0 0.7 0.3 0.7 0.7s-0.3 0.7-0.7 0.7-0.7-0.3-0.7-0.7c0.1-0.4 0.4-0.7 0.7-0.7zm0.5 2.7v5.4h-0.9v-5.4h0.9z"/>
<path d="m177.9 6.2c-0.1-0.3-0.4-0.5-0.8-0.5-0.3 0-0.6 0.2-0.6 0.6s0.3 0.5 0.9 0.8c0.8 0.3 1.1 0.6 1.4 0.8 0.2 0.3 0.3 0.6 0.3 0.9 0 1.1-0.8 1.8-1.9 1.8-0.2 0-1.4 0-1.9-1.4l0.8-0.3c0.1 0.3 0.4 0.9 1.1 0.9 0.6 0 0.9-0.5 0.9-0.9 0-0.5-0.4-0.7-0.9-0.9-0.6-0.3-1.1-0.5-1.3-0.8s-0.2-0.5-0.2-0.8c0-0.9 0.7-1.5 1.6-1.5 0.3 0 1.1 0.1 1.5 1l-0.9 0.3z"/>
<path d="m180.2 0.9h0.9v4.7c0.2-0.2 0.6-0.8 1.5-0.8 0.6 0 1.2 0.3 1.5 0.7s0.3 0.8 0.3 1.4v3.3h-0.9v-3.2c0-0.3 0-0.7-0.2-1-0.2-0.2-0.5-0.4-0.9-0.4-0.3 0-0.7 0.1-0.9 0.4-0.4 0.4-0.4 1.1-0.4 1.5v2.8h-0.9v-9.4z"/>
<path d="m193.5 5h0.9v5.4h-0.9v-0.8c-0.3 0.4-0.9 0.9-1.8 0.9-1.4 0-2.6-1-2.6-2.9s1.2-2.8 2.6-2.8c1 0 1.6 0.6 1.8 0.9v-0.7zm-3.5 2.7c0 1.2 0.7 2 1.8 2s1.8-0.9 1.8-2c0-1.4-1-2-1.8-2-1 0-1.8 0.6-1.8 2z"/>
<path d="m197.1 8.1c0 0.4 0 0.8 0.3 1.2 0.1 0.2 0.4 0.4 0.9 0.4s0.8-0.2 0.9-0.4c0.3-0.3 0.3-0.8 0.3-1.2v-3.1h0.9v3.2c0 0.7-0.1 1.2-0.5 1.6-0.5 0.5-1.1 0.7-1.7 0.7-0.5 0-1.2-0.2-1.7-0.7-0.4-0.5-0.5-1-0.5-1.6v-3.2h0.9v3.1h0.2z"/>
<polygon points="203.2 5.8 203.2 10.3 202.3 10.3 202.3 5.8 201.7 5.8 201.7 5 202.3 5 202.3 3 203.2 3 203.2 5 204.1 5 204.1 5.9 203.2 5.9"/>
<path d="m205 0.9h0.9v4.7c0.2-0.2 0.7-0.8 1.5-0.8 0.6 0 1.2 0.3 1.5 0.7s0.3 0.8 0.3 1.4v3.3h-0.9v-3.2c0-0.3 0-0.7-0.2-1-0.2-0.2-0.5-0.4-0.9-0.4-0.3 0-0.7 0.1-0.9 0.4-0.4 0.4-0.4 1.1-0.4 1.5v2.8h-0.9v-9.4z"/>
<path d="m210.6 7.7c0-1.6 1.2-2.8 2.9-2.8s2.9 1.2 2.9 2.8-1.2 2.8-2.9 2.8-2.9-1.2-2.9-2.8zm1 0c0 1.3 0.9 2 1.9 2s1.9-0.7 1.9-2-0.9-2-1.9-2-1.9 0.7-1.9 2z"/>
<path d="m217.8 5h0.9v0.6c0.1-0.1 0.5-0.7 1.2-0.7 0.3 0 0.6 0.1 0.8 0.2l-0.4 0.8c-0.2-0.1-0.4-0.2-0.5-0.2-0.4 0-0.6 0.2-0.8 0.3-0.2 0.2-0.3 0.6-0.3 1.5v2.8h-0.9v-5.3z"/>
<path d="m222.1 2.3c0.4 0 0.7 0.3 0.7 0.7s-0.3 0.7-0.7 0.7-0.7-0.3-0.7-0.7 0.3-0.7 0.7-0.7zm0.5 2.7v5.4h-0.9v-5.4h0.9z"/>
<polygon points="225.3 5.8 225.3 10.3 224.4 10.3 224.4 5.8 223.8 5.8 223.8 5 224.4 5 224.4 3 225.3 3 225.3 5 226.2 5 226.2 5.9 225.3 5.9"/>
<path d="m227.6 2.3c0.4 0 0.7 0.3 0.7 0.7s-0.3 0.7-0.7 0.7-0.7-0.3-0.7-0.7 0.3-0.7 0.7-0.7zm0.4 2.7v5.4h-0.9v-5.4h0.9z"/>
<path d="m234.6 9c-0.2 0.3-0.4 0.6-0.7 0.9-0.5 0.4-1.1 0.7-1.8 0.7-1.3 0-2.7-0.8-2.7-2.8 0-1.6 1-2.9 2.6-2.9 1.1 0 1.7 0.5 2 1s0.5 1.3 0.5 2h-4.2c0 1.1 0.8 1.8 1.7 1.8 0.4 0 0.8-0.1 1.1-0.4 0.2-0.2 0.4-0.5 0.6-0.7l0.9 0.4zm-0.9-1.9c-0.2-0.8-0.8-1.4-1.6-1.4s-1.4 0.6-1.6 1.4h3.2z"/>
<path d="m238.3 6.2c-0.1-0.3-0.4-0.5-0.8-0.5-0.3 0-0.6 0.2-0.6 0.6s0.3 0.5 0.9 0.8c0.8 0.3 1.1 0.6 1.4 0.8 0.2 0.3 0.3 0.6 0.3 0.9 0 1.1-0.8 1.8-1.9 1.8-0.2 0-1.4 0-1.9-1.4l0.8-0.3c0.1 0.3 0.4 0.9 1.1 0.9 0.6 0 0.9-0.5 0.9-0.9 0-0.5-0.4-0.7-0.9-0.9-0.6-0.3-1.1-0.5-1.3-0.8s-0.2-0.5-0.2-0.8c0-0.9 0.7-1.5 1.6-1.5 0.3 0 1.1 0.1 1.5 1l-0.9 0.3z"/>
</g>
</g>
</svg>
