<?xml version="1.0" encoding="UTF-8"?>
<svg width="1012px" height="144px" viewBox="0 0 1012 144" version="1.1" xmlns="http://www.w3.org/2000/svg" xmlns:xlink="http://www.w3.org/1999/xlink">
    <!-- Generator: Sketch 49.3 (51167) - http://www.bohemiancoding.com/sketch -->
    <title>krisinfo-logga</title>
    <desc>Created with Sketch.</desc>
    <defs></defs>
    <g id="krisinfo-logga" stroke="none" stroke-width="1" fill="none" fill-rule="evenodd">
        <g id="krisinformation-svart">
            <g id="Group-4">
                <path d="M992.763608,96.1686486 L957.544711,96.1686486 L957.544711,44.0172973 L992.303255,44.0172973 L992.303255,58.3238919 L976.237342,58.3238919 L976.237342,63.1731892 L990.833222,63.1731892 L990.833222,76.8531892 L976.237342,76.8531892 L976.237342,81.8581622 L992.763608,81.8581622 L992.763608,96.1686486 Z M953.749704,47.7379459 L948.739987,61.1260541 C946.503989,59.5498378 942.418844,57.1874595 938.25633,57.1874595 C937.258255,57.1874595 935.71472,57.3431351 934.712777,58.1331892 C934.020314,58.6858378 933.788203,59.2345946 933.788203,60.0207568 C933.788203,61.1260541 933.942943,62.1496216 936.794034,62.7762162 L942.732194,64.1189189 C947.273822,65.1385946 949.977909,67.0300541 951.517575,68.6062703 C954.751648,71.8326486 955.447979,75.8490811 955.447979,78.9976216 C955.447979,83.4888649 954.291296,87.660973 950.821244,91.3621622 C947.896652,94.4328649 942.345343,98.0523243 932.708889,98.0523243 C924.844213,98.0523243 919.606253,95.7716757 915.211628,93.9580541 L913.517221,93.2497297 L919.142032,78.4488649 L921.145919,80.0211892 C923.072436,81.5195676 927.006709,83.8819459 931.552205,83.8819459 C934.097684,83.8819459 935.173129,83.2514595 935.55998,82.9362162 C936.411052,82.2278919 936.561923,81.36 936.561923,80.5738378 C936.561923,80.1029189 936.484553,79.3128649 935.946831,78.7602162 C935.327869,78.1336216 934.329794,77.8962162 932.403277,77.5031351 L927.853912,76.6352432 C924.925451,76.0864865 921.76488,75.1407568 918.909921,72.1478919 C916.29481,69.3924324 915.211628,66.2438919 915.211628,62.460973 C915.211628,57.5844324 916.828664,53.4084324 920.221345,49.9446486 C924.155618,45.8503784 929.935169,43.1727568 938.105458,43.1727568 C942.190603,43.1727568 947.509801,43.8810811 953.749704,47.7379459 Z M913.517221,87.4624865 C913.517221,89.3539459 912.728045,91.548973 911.292829,93.0668108 C909.428208,95.0361081 906.557775,95.9429189 904.047113,95.9429189 C901.609953,95.9429189 898.735652,95.0361081 896.871031,93.0668108 C895.435815,91.548973 894.646639,89.3539459 894.646639,87.4624865 C894.646639,85.644973 895.435815,83.4460541 896.871031,81.9321081 C898.735652,79.9667027 901.609953,79.056 904.047113,79.056 C906.557775,79.056 909.428208,79.9667027 911.292829,81.9321081 C912.728045,83.4460541 913.517221,85.644973 913.517221,87.4624865 Z M255.445322,58.8570811 L255.445322,67.7772973 L257.685188,67.7772973 C258.807055,67.7772973 260.567226,67.6216216 261.766464,66.6019459 C262.404768,66.0531892 263.128179,65.0374054 263.128179,63.395027 C263.128179,62.2196757 262.807092,61.0482162 262.083681,60.2659459 C261.445378,59.5615135 260.408617,58.8570811 258.807055,58.8570811 L255.445322,58.8570811 Z M287.027821,96.7212973 L306.385835,96.7212973 L306.385835,44.5388108 L287.027821,44.5388108 L287.027821,96.7212973 Z M351.67059,47.9052973 L346.471315,61.2038919 C344.150211,59.6393514 339.906457,57.2925405 335.589202,57.2925405 C334.552442,57.2925405 332.95088,57.4482162 331.910251,58.2304865 C331.190709,58.7792432 330.950861,59.328 330.950861,60.1063784 C330.950861,61.2038919 331.10947,62.2196757 334.072747,62.8462703 L340.227543,64.1772973 C344.947123,65.1930811 347.747923,67.0728649 349.349485,68.6374054 C352.70735,71.8443243 353.426893,75.8335135 353.426893,78.9625946 C353.426893,83.4227027 352.227655,87.5714595 348.626074,91.2454054 C345.589296,94.2966486 339.829087,97.8966486 329.832862,97.8966486 C321.674179,97.8966486 316.231188,95.6276757 311.674086,93.8296216 L309.910046,93.1251892 L315.751493,78.4138378 L317.828882,79.9783784 C319.832769,81.4650811 323.914045,83.8157838 328.629756,83.8157838 C331.271947,83.8157838 332.389946,83.1891892 332.792271,82.8739459 C333.670422,82.1695135 333.829031,81.3094054 333.829031,80.5271351 C333.829031,80.0562162 333.751661,79.2778378 333.190727,78.7290811 C332.548555,78.1024865 331.511795,77.868973 329.511776,77.4758919 L324.792196,76.6157838 C321.751549,76.0709189 318.471054,75.1290811 315.511646,72.1556757 C312.792085,69.4196757 311.674086,66.2905946 311.674086,62.5349189 C311.674086,57.6817297 313.353018,53.5368649 316.869492,50.0964324 C320.950768,46.0255135 326.950824,43.3673514 335.430593,43.3673514 C339.670478,43.3673514 345.190839,44.0717838 351.67059,47.9052973 Z M357.051685,96.7212973 L376.409699,96.7212973 L376.409699,44.5388108 L357.051685,44.5388108 L357.051685,96.7212973 Z M400.375106,96.7212973 L381.899112,96.7212973 L381.899112,44.5388108 L400.375106,44.5388108 L412.773674,64.2551351 C414.777561,67.3842162 416.054169,69.4196757 417.81434,73.4867027 L418.375274,73.4867027 C417.578361,70.2019459 416.696341,64.9595676 416.696341,61.1260541 L416.696341,44.5388108 L435.253574,44.5388108 L435.253574,96.7212973 L416.696341,96.7212973 L403.415753,76.1487568 C402.216516,74.268973 400.777431,71.532973 399.736802,69.3379459 L399.179737,69.3379459 C399.736802,72.1556757 400.375106,76.6157838 400.375106,78.9625946 L400.375106,96.7212973 Z M459.590358,96.7212973 L440.232344,96.7212973 L440.232344,44.5388108 L475.830355,44.5388108 L475.830355,59.4058378 L459.590358,59.4058378 L459.590358,64.7221622 L473.830336,64.7221622 L473.830336,78.4955676 L459.590358,78.4955676 L459.590358,96.7212973 Z M507.064689,60.1881081 C503.625585,60.1881081 501.385719,61.5191351 500.109111,62.8462703 C498.182594,64.8038919 497.064596,67.8551351 497.064596,70.6728649 C497.064596,73.6423784 498.182594,76.5379459 500.109111,78.4138378 C501.706805,79.9822703 504.10528,81.0758919 507.064689,81.0758919 C510.024097,81.0758919 512.422572,79.9822703 514.024135,78.4138378 C515.784306,76.6975135 517.060914,73.9576216 517.060914,70.6728649 C517.060914,67.3842162 515.942915,64.6482162 514.024135,62.8462703 C512.58505,61.4412973 510.267813,60.1881081 507.064689,60.1881081 Z M536.662644,70.5911351 C536.662644,78.9664865 533.382149,85.3803243 529.223503,89.5251892 C524.662532,94.0631351 517.223391,97.8966486 507.064689,97.8966486 C496.905987,97.8966486 489.466846,94.0631351 484.909743,89.5251892 C480.747229,85.3803243 477.466734,78.9664865 477.466734,70.5911351 C477.466734,62.2975135 480.747229,55.8836757 484.909743,51.7388108 C489.466846,47.2008649 496.905987,43.3673514 507.064689,43.3673514 C517.223391,43.3673514 524.662532,47.2008649 529.223503,51.7388108 C533.382149,55.8836757 536.662644,62.2975135 536.662644,70.5911351 Z M558.403659,58.6235676 L558.403659,67.5398919 L560.643525,67.5398919 C561.761524,67.5398919 563.521695,67.3842162 564.724801,66.3645405 C565.363105,65.8196757 566.082647,64.8038919 566.082647,63.1615135 C566.082647,61.9861622 565.761561,60.8108108 565.045887,60.0285405 C564.403715,59.3241081 563.363086,58.6235676 561.761524,58.6235676 L558.403659,58.6235676 Z M689.507396,67.6177297 C689.027701,65.5861622 688.706614,63.6285405 688.462898,61.7487568 L687.743356,61.7487568 C687.665986,63.9398919 687.3449,65.7418378 686.865205,67.6177297 L684.223014,77.6315676 L691.983241,77.6315676 L689.507396,67.6177297 Z M742.405374,96.4877838 L723.368446,96.4877838 L723.368446,60.8108108 L712.490202,61.2817297 L712.490202,44.3052973 L753.287487,44.3052973 L753.287487,61.2817297 L742.405374,60.8108108 L742.405374,96.4877838 Z M757.422922,96.4877838 L776.780937,96.4877838 L776.780937,44.3052973 L757.422922,44.3052973 L757.422922,96.4877838 Z M809.775441,61.1260541 C806.336338,61.1260541 804.096472,62.4531892 802.815996,63.7842162 C800.893347,65.7418378 799.775348,68.7930811 799.775348,71.6108108 C799.775348,74.5803243 800.893347,77.4758919 802.815996,79.3556757 C804.417558,80.9202162 806.816033,82.0138378 809.775441,82.0138378 C812.73485,82.0138378 815.133325,80.9202162 816.734887,79.3556757 C818.49119,77.6315676 819.771666,74.8955676 819.771666,71.6108108 C819.771666,68.3221622 818.653667,65.5861622 816.734887,63.7842162 C815.295802,62.3753514 812.974698,61.1260541 809.775441,61.1260541 Z M839.373396,71.532973 C839.373396,79.9005405 836.092902,86.3182703 831.934255,90.4631351 C827.373284,95.0010811 819.934144,98.8345946 809.775441,98.8345946 C799.612871,98.8345946 792.177598,95.0010811 787.616628,90.4631351 C783.457981,86.3182703 780.177487,79.9005405 780.177487,71.532973 C780.177487,63.2393514 783.457981,56.8216216 787.616628,52.6767568 C792.177598,48.1388108 799.612871,44.3052973 809.775441,44.3052973 C819.934144,44.3052973 827.373284,48.1388108 831.934255,52.6767568 C836.092902,56.8216216 839.373396,63.2393514 839.373396,71.532973 Z M859.996413,96.4877838 L842.236092,96.4877838 L842.236092,44.3052973 L859.996413,44.3052973 L871.915286,64.0177297 C873.837934,67.1507027 875.06812,69.1822703 876.758658,73.2492973 L877.29638,73.2492973 C876.526547,69.9645405 875.683213,64.7221622 875.683213,60.8925405 L875.683213,44.3052973 L893.520903,44.3052973 L893.520903,96.4877838 L875.683213,96.4877838 L862.921005,75.9113514 C861.768189,74.0354595 860.379395,71.2955676 859.385188,69.1044324 L858.843597,69.1044324 C859.385188,71.9221622 859.996413,76.3822703 859.996413,78.7290811 L859.996413,96.4877838 Z M588.585758,95.2307027 L597.015237,44.3052973 L616.934185,44.3052973 L623.174089,65.664 C623.971001,68.4 624.292087,70.9803243 624.373326,71.6847568 L624.853021,71.6847568 C624.930391,69.4196757 625.251477,67.8551351 625.889781,65.664 L632.129685,44.3052973 L651.890024,44.3052973 L660.002285,92.8410811 L677.186198,44.3052973 L698.625469,44.3052973 L717.662397,96.4877838 L697.101277,96.4877838 L695.341106,89.9922162 L680.625301,89.9922162 L679.186216,96.4877838 L641.967301,96.4877838 L639.568826,73.0936216 C639.410217,71.2955676 639.247739,70.1241081 639.247739,67.932973 L638.930522,67.932973 C638.690674,69.264 638.210979,71.2955676 637.893762,72.3113514 L629.971057,96.4877838 L618.613118,96.4877838 L611.495063,73.6423784 C610.934129,71.7664865 610.531804,70.1241081 610.454434,67.932973 L609.893501,67.932973 C609.893501,68.9487568 609.893501,70.9803243 609.812262,72 L607.173939,96.4877838 L567.123276,96.4877838 L559.440419,81.2315676 C559.20444,80.6828108 558.960724,80.4492973 558.724745,79.5891892 L558.403659,79.7448649 L558.403659,96.4877838 L539.52534,96.4877838 L539.52534,44.3052973 L563.602934,44.3052973 C569.204533,44.3052973 575.042112,44.9318919 579.9203,49.7033514 C582.64373,52.3615135 584.960966,56.3545946 584.960966,62.5349189 C584.960966,67.1507027 583.521881,70.0423784 581.997689,71.8443243 C580.399995,73.7980541 577.761673,75.3625946 574.639787,75.9891892 L574.639787,76.4601081 C575.684284,77.004973 576.721044,77.7872432 577.440587,78.8847568 L588.585758,95.2307027 Z M236.567002,96.7212973 L214.605482,96.7212973 L204.845237,79.9783784 C203.885847,78.4138378 203.007695,76.5379459 202.288153,74.9734054 L201.889697,74.9734054 C202.206914,76.7714595 202.288153,78.1803243 202.288153,79.9005405 L202.288153,96.7212973 L183.727051,96.7212973 L183.727051,44.5388108 L202.288153,44.5388108 L202.288153,60.732973 C202.288153,63.0836757 202.206914,64.9595676 201.889697,67.3063784 L202.288153,67.3063784 C203.406152,64.332973 204.129563,63.1615135 205.088953,61.4374054 L214.288265,44.5388108 L235.243973,44.5388108 L218.60552,70.1241081 L236.567002,96.0947027 L236.567002,44.5388108 L260.644596,44.5388108 C266.242328,44.5388108 272.083775,45.1654054 276.965832,49.9368649 C279.685393,52.5989189 282.006498,56.5881081 282.006498,62.7684324 C282.006498,67.3842162 280.563544,70.2797838 279.043221,72.0778378 C277.445527,74.0354595 274.803336,75.6 271.685318,76.2265946 L271.685318,76.6936216 C272.722078,77.2423784 273.766576,78.0246486 274.48225,79.1182703 L286.482361,96.7212973 L264.164939,96.7212973 L256.48595,81.4650811 C256.246103,80.9202162 256.006255,80.6867027 255.766408,79.8227027 L255.445322,79.9783784 L255.445322,96.7212973 L236.567002,96.7212973 Z" id="Fill-1" fill="#000"></path>
                <polygon id="Fill-3" fill="#023585" points="0 143.883243 143.018742 143.883243 143.018742 0 0 0"></polygon>
            </g>
            <g id="Group-2" transform="translate(28.000000, 36.000000)" fill="#FFCD05" fill-rule="nonzero">
                <path d="M40.7484663,0.253968254 C38.4846626,0.253968254 36.7239264,2.03174603 36.7239264,4.31746032 C36.7239264,5.07936508 36.9754601,6.0952381 37.4785276,6.6031746 C36.9754601,6.34920635 36.7239264,6.34920635 36.2208589,6.34920635 C33.9570552,6.34920635 32.196319,8.12698413 32.196319,10.4126984 C32.196319,12.6984127 33.9570552,14.4761905 36.2208589,14.4761905 C36.4723926,14.4761905 36.4723926,14.4761905 36.7239264,14.4761905 C36.4723926,16.7619048 34.9631902,18.031746 32.6993865,18.031746 C30.1840491,18.031746 29.4294479,14.4761905 28.9263804,14.4761905 C28.6748466,14.4761905 27.6687117,18.031746 25.1533742,18.031746 C23.392638,18.031746 21.8834356,16.5079365 21.8834356,14.4761905 C21.8834356,14.4761905 21.8834356,13.968254 21.8834356,12.952381 C22.6380368,13.4603175 23.392638,13.968254 24.398773,13.968254 C26.6625767,13.968254 28.4233129,12.1904762 28.4233129,9.9047619 C28.4233129,7.61904762 26.6625767,5.84126984 24.398773,5.84126984 C24.398773,5.84126984 24.1472393,5.84126984 24.1472393,5.84126984 C24.398773,5.33333333 24.6503067,4.57142857 24.6503067,3.80952381 C24.398773,2.03174603 22.6380368,0.253968254 20.6257669,0.253968254 C18.3619632,0.253968254 16.601227,2.03174603 16.601227,4.31746032 C16.601227,5.07936508 16.8527607,5.58730159 17.1042945,6.34920635 C17.1042945,6.34920635 16.8527607,6.34920635 16.8527607,6.34920635 C14.5889571,6.0952381 12.8282209,7.87301587 12.8282209,10.1587302 C12.8282209,12.4444444 14.5889571,14.2222222 16.8527607,14.2222222 C17.8588957,14.2222222 18.6134969,13.968254 19.3680982,13.2063492 C19.3680982,13.968254 19.3680982,14.7301587 19.3680982,14.7301587 C18.8650307,16.5079365 17.3558282,18.031746 15.595092,18.031746 C12.8282209,18.031746 12.3251534,14.7301587 11.8220859,14.7301587 C11.3190184,14.7301587 10.5644172,18.031746 8.04907975,18.031746 C6.28834356,18.031746 4.7791411,17.015873 4.27607362,13.968254 C4.52760736,13.968254 4.7791411,13.968254 5.03067485,13.968254 C7.29447853,13.968254 9.05521472,12.1904762 9.05521472,9.9047619 C9.05521472,7.61904762 7.29447853,5.84126984 5.03067485,5.84126984 C4.52760736,5.84126984 4.02453988,5.84126984 3.77300613,6.0952381 C4.27607362,5.33333333 4.52760736,4.57142857 4.52760736,3.80952381 C4.52760736,2.03174603 2.76687117,0.253968254 0.754601227,0.253968254 C0.503067485,0.253968254 0.251533742,0.253968254 0,0.253968254 L0,0.761904762 L3.01840491,32 L29.4294479,32 L37.9815951,32 L41,0.507936508 L41,0 C41,0.253968254 40.7484663,0.253968254 40.7484663,0.253968254 Z" id="Shape"></path>
                <path d="M87.5,0.251968504 C85.25,0.251968504 83.5,2.01574803 83.5,4.28346457 C83.5,5.03937008 83.75,6.04724409 84.25,6.5511811 C83.75,6.2992126 83.5,6.2992126 83,6.2992126 C80.75,6.2992126 79,8.06299213 79,10.3307087 C79,12.5984252 80.75,14.3622047 83,14.3622047 C83.25,14.3622047 83.25,14.3622047 83.5,14.3622047 C83.25,16.8818898 82,18.3937008 79.75,18.1417323 C77.25,18.1417323 76.5,14.6141732 76,14.6141732 C75.75,14.6141732 74.75,18.1417323 72.25,18.1417323 C70.25,18.1417323 68.75,16.6299213 68.5,14.6141732 C68.5,14.6141732 68.5,14.1102362 68.5,13.1023622 C69.25,13.6062992 70,14.1102362 71,14.1102362 C73.25,14.1102362 75,12.3464567 75,10.0787402 C75,7.81102362 73.25,6.04724409 71,6.04724409 C71,6.04724409 70.75,6.04724409 70.75,6.04724409 C71,5.54330709 71.25,4.78740157 71.25,4.03149606 C71.25,1.76377953 69.5,0 67.25,0 C65,0 63.25,1.76377953 63.25,4.03149606 C63.25,4.78740157 63.5,5.29133858 63.75,6.04724409 C63.75,6.04724409 63.5,6.04724409 63.5,6.04724409 C61.25,6.04724409 59.5,7.81102362 59.5,10.0787402 C59.5,12.3464567 61.25,14.1102362 63.5,14.1102362 C64.5,14.1102362 65.25,13.8582677 66,13.1023622 C66,13.8582677 66,14.6141732 66,14.6141732 C66,16.3779528 64.5,17.8897638 62.5,17.8897638 C59.75,17.8897638 59.25,14.3622047 58.75,14.6141732 C58.5,14.6141732 57.75,17.8897638 55.25,17.8897638 C53.5,17.8897638 52,16.8818898 51.5,13.8582677 C51.75,13.8582677 52,13.8582677 52.25,13.8582677 C54.5,13.8582677 56.25,12.0944882 56.25,9.82677165 C56.25,7.55905512 54.5,5.79527559 52.25,5.79527559 C51.75,5.79527559 51.25,5.79527559 51,6.04724409 C51.5,5.29133858 51.75,4.53543307 51.75,3.77952756 C51.75,2.01574803 50,0.251968504 47.75,0.251968504 C47.5,0.251968504 47.25,0.251968504 47,0.251968504 L47,0.755905512 L50.25,32 L76.5,32 L85,32 L88,0.755905512 L88,0.251968504 C88,0.251968504 87.75,0.251968504 87.5,0.251968504 Z" id="Shape"></path>
                <path d="M63.7515152,39.5079365 C61.5151515,39.5079365 59.7757576,41.2857143 59.7757576,43.5714286 C59.7757576,44.3333333 60.0242424,45.3492063 60.5212121,45.8571429 C60.0242424,45.6031746 59.7757576,45.6031746 59.2787879,45.6031746 C57.0424242,45.6031746 55.3030303,47.3809524 55.3030303,49.6666667 C55.3030303,51.952381 57.0424242,53.7301587 59.2787879,53.7301587 C59.5272727,53.7301587 59.5272727,53.7301587 59.7757576,53.7301587 C59.5272727,56.2698413 58.2848485,57.7936508 56.0484848,57.5396825 C53.5636364,57.5396825 52.8181818,53.984127 52.3212121,53.984127 C52.0727273,53.984127 51.0787879,57.5396825 48.5939394,57.5396825 C46.6060606,57.5396825 45.1151515,56.015873 44.8666667,53.984127 C44.8666667,53.984127 44.8666667,53.4761905 44.8666667,52.4603175 C45.6121212,52.968254 46.3575758,53.4761905 47.3515152,53.4761905 C49.5878788,53.4761905 51.3272727,51.6984127 51.3272727,49.4126984 C51.3272727,47.1269841 49.5878788,45.3492063 47.3515152,45.3492063 C47.3515152,45.3492063 47.1030303,45.3492063 47.1030303,45.3492063 C47.3515152,44.8412698 47.6,44.0793651 47.6,43.3174603 C47.6,41.031746 45.8606061,39.2539683 43.6242424,39.2539683 C41.3878788,39.2539683 39.6484848,41.031746 39.6484848,43.3174603 C39.6484848,44.0793651 39.8969697,44.5873016 40.1454545,45.3492063 C40.1454545,45.3492063 39.8969697,45.3492063 39.8969697,45.3492063 C37.6606061,45.3492063 35.9212121,47.1269841 35.9212121,49.4126984 C35.9212121,51.6984127 37.6606061,53.4761905 39.8969697,53.4761905 C40.8909091,53.4761905 41.6363636,53.2222222 42.3818182,52.4603175 C42.3818182,53.2222222 42.3818182,53.984127 42.3818182,53.984127 C42.1333333,56.015873 40.6424242,57.5396825 38.6545455,57.5396825 C35.9212121,57.5396825 35.4242424,53.984127 34.9272727,54.2380952 C34.430303,54.2380952 33.6848485,57.5396825 31.2,57.5396825 C29.4606061,57.5396825 27.969697,56.5238095 27.4727273,53.4761905 C27.7212121,53.4761905 27.969697,53.4761905 28.2181818,53.4761905 C30.4545455,53.4761905 32.1939394,51.6984127 32.1939394,49.4126984 C32.1939394,47.1269841 30.4545455,45.3492063 28.2181818,45.3492063 C27.7212121,45.3492063 27.2242424,45.3492063 26.9757576,45.6031746 C27.4727273,44.8412698 27.7212121,44.0793651 27.7212121,43.3174603 C27.7212121,41.031746 25.9818182,39.2539683 23.7454545,39.2539683 C23.4969697,39.2539683 23.2484848,39.2539683 23,39.2539683 L23,39.7619048 L25.9818182,71 L52.0727273,71 L60.5212121,71 L63.5030303,39.5079365 L63.5030303,39 C64.2484848,39.5079365 64,39.5079365 63.7515152,39.5079365 Z" id="Shape"></path>
            </g>
            <path d="M590.008296,135.071329 L590.008296,124.375791 L591.879254,124.375791 L591.879254,125.537595 C592.064803,125.251969 592.872717,124.121044 594.330054,124.121044 C594.902165,124.121044 595.528395,124.325614 596,124.557202 L595.110908,126.232361 C594.697287,125.950594 594.302995,125.873398 594.016939,125.873398 C593.263144,125.873398 592.795405,126.182183 592.505483,126.541146 C592.192368,126.954145 591.879254,127.67593 591.879254,129.428285 L591.879254,135.071329 L590.008296,135.071329 Z M578.85986,128.552107 L585.214932,128.552107 C584.901817,126.876949 583.626164,125.769183 582.03353,125.769183 C580.448628,125.769183 579.145915,126.954145 578.85986,128.552107 Z M585.500988,131.489424 L587.062696,132.338583 C586.749581,132.932994 586.281842,133.577582 585.732925,134.067778 C584.747192,134.943956 583.521792,135.383974 582.141767,135.383974 C579.536342,135.383974 576.803352,133.758993 576.803352,129.791107 C576.803352,126.595183 578.782547,124.121044 582.03353,124.121044 C584.144156,124.121044 585.473928,125.151613 586.127217,126.077968 C586.8037,127.031342 587.194127,128.683341 587.143874,130.099892 L578.728429,130.099892 C578.755488,132.315424 580.290138,133.731975 582.168827,133.731975 C583.054053,133.731975 583.757595,133.473367 584.379959,132.956153 C584.874758,132.547013 585.265185,132.006639 585.500988,131.489424 Z M575.709383,126.077968 L573.830694,126.077968 L573.830694,135.071329 L571.95587,135.071329 L571.95587,126.077968 L570.811648,126.077968 L570.811648,124.375791 L571.95587,124.375791 L571.95587,120.51212 L573.830694,120.51212 L573.830694,124.375791 L575.709383,124.375791 L575.709383,126.077968 Z M560.757181,128.552107 L567.112253,128.552107 C566.799138,126.876949 565.523485,125.769183 563.934717,125.769183 C562.345949,125.769183 561.047102,126.954145 560.757181,128.552107 Z M567.398309,131.489424 L568.963883,132.338583 C568.646903,132.932994 568.179163,133.577582 567.634111,134.067778 C566.644514,134.943956 565.422979,135.383974 564.039089,135.383974 C561.433664,135.383974 558.700673,133.758993 558.700673,129.791107 C558.700673,126.595183 560.679869,124.121044 563.934717,124.121044 C566.045343,124.121044 567.37125,125.151613 568.024539,126.077968 C568.701021,127.031342 569.091449,128.683341 569.041196,130.099892 L560.62575,130.099892 C560.652809,132.315424 562.191324,133.731975 564.066148,133.731975 C564.947509,133.731975 565.654916,133.473367 566.27728,132.956153 C566.772079,132.547013 567.166372,132.006639 567.398309,131.489424 Z M547.134751,135.071329 L547.134751,116.285626 L549.009575,116.285626 L549.009575,125.614791 C549.349749,125.174772 550.312287,124.121044 552.109799,124.121044 C553.385452,124.121044 554.560599,124.634399 555.210022,125.587772 C555.75894,126.386753 555.836252,127.26679 555.836252,128.451752 L555.836252,135.071329 L553.961428,135.071329 L553.961428,128.50193 C553.961428,127.857341 553.90731,127.108538 553.46663,126.541146 C553.099396,126.077968 552.527285,125.769183 551.696178,125.769183 C551.042889,125.769183 550.339347,125.950594 549.794295,126.595183 C549.063693,127.444342 549.009575,128.7065 549.009575,129.478462 L549.009575,135.071329 L547.134751,135.071329 Z M538.228372,125.769183 C537.080284,125.769183 536.29943,126.259379 535.781438,126.776594 C534.869152,127.702949 534.683603,128.837734 534.683603,129.713911 C534.683603,130.640266 534.869152,131.902424 535.912868,132.855797 C536.508173,133.396171 537.238775,133.731975 538.228372,133.731975 C539.21797,133.731975 539.998824,133.42319 540.597995,132.828779 C541.328596,132.134013 541.823395,130.999228 541.823395,129.73707 C541.823395,128.474911 541.355655,127.367145 540.675307,126.722557 C540.076137,126.132006 539.190911,125.769183 538.228372,125.769183 Z M541.719023,125.896557 L541.719023,124.375791 L543.593847,124.375791 L543.593847,134.816582 C543.593847,135.974525 543.593847,137.622665 542.553996,139.016057 C541.746083,140.096804 540.261686,141 538.228372,141 C536.380608,141 535.104955,140.278215 534.374353,139.55643 C533.643752,138.834646 532.967269,137.676702 532.967269,136.105759 L534.818899,136.105759 C534.818899,137.005095 535.178401,137.804076 535.650007,138.321291 C536.430861,139.170449 537.420459,139.35186 538.255432,139.35186 C539.581338,139.35186 540.493623,138.884823 541.115987,137.854254 C541.664905,136.981936 541.719023,136.024703 541.719023,135.125367 L541.719023,133.577582 C541.096659,134.376563 539.921512,135.383974 538.019629,135.383974 C536.430861,135.383974 535.155208,134.762544 534.3241,133.936545 C533.593499,133.21476 532.758526,131.875405 532.758526,129.713911 C532.758526,127.625753 533.53938,126.336576 534.3241,125.560753 C535.23252,124.684576 536.562292,124.121044 538.019629,124.121044 C539.608397,124.121044 540.856991,124.788791 541.719023,125.896557 Z M527.628854,120.330709 C527.628854,119.608924 528.224159,119.018373 528.95476,119.018373 C529.685361,119.018373 530.284532,119.608924 530.284532,120.330709 C530.284532,121.052493 529.685361,121.646904 528.95476,121.646904 C528.224159,121.646904 527.628854,121.052493 527.628854,120.330709 Z M528.019281,135.071329 L529.894105,135.071329 L529.894105,124.375791 L528.019281,124.375791 L528.019281,135.071329 Z M519.109037,125.769183 C517.265138,125.769183 515.568133,127.108538 515.568133,129.713911 C515.568133,132.006639 516.870845,133.731975 519.109037,133.731975 C521.405212,133.731975 522.707925,131.848387 522.707925,129.73707 C522.707925,126.981164 520.778983,125.769183 519.109037,125.769183 Z M522.599688,125.896557 L522.599688,116.285626 L524.478377,116.285626 L524.478377,135.071329 L522.599688,135.071329 L522.599688,133.577582 C521.973458,134.376563 520.806042,135.383974 518.900293,135.383974 C516.167303,135.383974 513.643056,133.473367 513.643056,129.713911 C513.643056,126.027791 516.140244,124.121044 518.900293,124.121044 C520.98386,124.121044 522.104889,125.251969 522.599688,125.896557 Z M502.077134,135.071329 L502.077134,124.375791 L503.951957,124.375791 L503.951957,125.614791 C504.292131,125.174772 505.25467,124.121044 507.052181,124.121044 C508.327834,124.121044 509.502982,124.634399 510.152405,125.587772 C510.697457,126.386753 510.778635,127.26679 510.778635,128.451752 L510.778635,135.071329 L508.899945,135.071329 L508.899945,128.50193 C508.899945,127.857341 508.849692,127.108538 508.405147,126.541146 C508.041779,126.077968 507.465802,125.769183 506.634695,125.769183 C505.985271,125.769183 505.281729,125.950594 504.732812,126.595183 C504.006076,127.444342 503.951957,128.7065 503.951957,129.478462 L503.951957,135.071329 L502.077134,135.071329 Z M490.070531,141 L493.507063,134.067778 L488.535882,124.375791 L490.669701,124.375791 L494.500527,132.029798 L498.014371,124.375791 L500.097938,124.375791 L492.154098,141 L490.070531,141 Z M472.253908,135.071329 L472.253908,124.375791 L474.128732,124.375791 L474.128732,125.510576 C474.731768,124.634399 475.667247,124.121044 476.815335,124.121044 C478.767471,124.121044 479.548325,125.483557 479.753203,125.846379 C480.796919,124.221399 482.285181,124.121044 483.011917,124.121044 C486.216512,124.121044 486.525761,126.776594 486.525761,128.2935 L486.525761,135.071329 L484.654803,135.071329 L484.654803,128.579126 C484.654803,127.367145 484.496313,125.769183 482.725861,125.769183 C480.561116,125.769183 480.329179,127.830323 480.329179,129.1195 L480.329179,135.071329 L478.454356,135.071329 L478.454356,128.733519 C478.454356,127.984715 478.477549,125.769183 476.50222,125.769183 C474.364534,125.769183 474.128732,127.961556 474.128732,129.246874 L474.128732,135.071329 L472.253908,135.071329 Z M457.278512,125.769183 C455.426882,125.769183 453.737608,127.108538 453.737608,129.713911 C453.737608,132.006639 455.040321,133.731975 457.278512,133.731975 C459.570823,133.731975 460.873535,131.848387 460.873535,129.73707 C460.873535,126.981164 458.948458,125.769183 457.278512,125.769183 Z M460.769163,125.896557 L460.769163,124.375791 L462.647853,124.375791 L462.647853,135.071329 L460.769163,135.071329 L460.769163,133.577582 C460.142934,134.376563 458.971652,135.383974 457.069769,135.383974 C454.336779,135.383974 451.808666,133.473367 451.808666,129.713911 C451.808666,126.027791 454.30972,124.121044 457.069769,124.121044 C459.153336,124.121044 460.274365,125.251969 460.769163,125.896557 Z M441.495203,116.285626 L443.370027,116.285626 L443.370027,128.347537 L447.332283,124.375791 L449.779218,124.375791 L445.140479,128.965107 L450.610325,135.071329 L448.16339,135.071329 L443.837766,130.200247 L443.370027,130.663424 L443.370027,135.071329 L441.495203,135.071329 L441.495203,116.285626 Z M438.321533,126.05095 L436.779152,126.849931 C436.520156,126.232361 435.975104,125.769183 435.271562,125.769183 C434.595079,125.769183 433.968849,126.155164 433.968849,126.981164 C433.968849,127.753126 434.486842,127.984715 435.716108,128.50193 C437.277816,129.146518 438.008418,129.636715 438.422039,130.150069 C438.889778,130.717462 438.99415,131.284854 438.99415,131.875405 C438.99415,134.117956 437.355129,135.383974 435.271562,135.383974 C434.827016,135.383974 432.403275,135.329937 431.494855,132.647368 L433.110683,131.97962 C433.319426,132.547013 433.94179,133.731975 435.294756,133.731975 C436.520156,133.731975 437.065208,132.828779 437.065208,132.029798 C437.065208,131.026247 436.338472,130.690443 435.321815,130.254284 C434.019102,129.686892 433.187995,129.273892 432.693196,128.683341 C432.27571,128.166126 432.198397,127.648912 432.198397,127.108538 C432.198397,125.22881 433.524304,124.121044 435.348874,124.121044 C435.924851,124.121044 437.4595,124.221399 438.321533,126.05095 Z M420.087423,135.071329 L420.087423,124.375791 L421.962247,124.375791 L421.962247,125.614791 C422.298555,125.174772 423.264959,124.121044 425.062471,124.121044 C426.338124,124.121044 427.509405,124.634399 428.162694,125.587772 C428.707746,126.386753 428.785059,127.26679 428.785059,128.451752 L428.785059,135.071329 L426.910235,135.071329 L426.910235,128.50193 C426.910235,127.857341 426.859982,127.108538 426.415436,126.541146 C426.052068,126.077968 425.476091,125.769183 424.644984,125.769183 C423.995561,125.769183 423.292019,125.950594 422.743101,126.595183 C422.0125,127.444342 421.962247,128.7065 421.962247,129.478462 L421.962247,135.071329 L420.087423,135.071329 Z M408.938987,128.552107 L415.29406,128.552107 C414.98481,126.876949 413.705291,125.769183 412.116523,125.769183 C410.527755,125.769183 409.225043,126.954145 408.938987,128.552107 Z M415.580115,131.489424 L417.141824,132.338583 C416.832575,132.932994 416.36097,133.577582 415.812052,134.067778 C414.82632,134.943956 413.60092,135.383974 412.220895,135.383974 C409.61547,135.383974 406.88248,133.758993 406.88248,129.791107 C406.88248,126.595183 408.861675,124.121044 412.116523,124.121044 C414.22715,124.121044 415.553056,125.151613 416.206345,126.077968 C416.882828,127.031342 417.273255,128.683341 417.223002,130.099892 L408.811422,130.099892 C408.834616,132.315424 410.369265,133.731975 412.247954,133.731975 C413.13318,133.731975 413.836722,133.473367 414.462952,132.956153 C414.957751,132.547013 415.344313,132.006639 415.580115,131.489424 Z M394.953189,124.375791 L397.036756,124.375791 L400.264545,131.593639 L403.4962,124.375791 L405.579767,124.375791 L400.264545,135.769955 L394.953189,124.375791 Z M393.337362,126.05095 L391.798847,126.849931 C391.539851,126.232361 390.990933,125.769183 390.291257,125.769183 C389.614774,125.769183 388.988544,126.155164 388.988544,126.981164 C388.988544,127.753126 389.510402,127.984715 390.731937,128.50193 C392.293646,129.146518 393.024247,129.636715 393.441734,130.150069 C393.909473,130.717462 394.01771,131.284854 394.01771,131.875405 C394.01771,134.117956 392.374824,135.383974 390.291257,135.383974 C389.850577,135.383974 387.426835,135.329937 386.51455,132.647368 L388.126512,131.97962 C388.339121,132.547013 388.961485,133.731975 390.318316,133.731975 C391.539851,133.731975 392.088768,132.828779 392.088768,132.029798 C392.088768,131.026247 391.358167,130.690443 390.345375,130.254284 C389.042663,129.686892 388.20769,129.273892 387.712891,128.683341 C387.295405,128.166126 387.218092,127.648912 387.218092,127.108538 C387.218092,125.22881 388.547864,124.121044 390.368569,124.121044 C390.944546,124.121044 392.479195,124.221399 393.337362,126.05095 Z M369.038101,135.071329 L369.038101,124.375791 L370.912925,124.375791 L370.912925,125.614791 C371.253099,125.174772 372.215637,124.121044 374.013149,124.121044 C375.288802,124.121044 376.460084,124.634399 377.113373,125.587772 C377.658424,126.386753 377.739602,127.26679 377.739602,128.451752 L377.739602,135.071329 L375.860913,135.071329 L375.860913,128.50193 C375.860913,127.857341 375.81066,127.108538 375.36998,126.541146 C375.002746,126.077968 374.42677,125.769183 373.595662,125.769183 C372.942373,125.769183 372.242697,125.950594 371.693779,126.595183 C370.967044,127.444342 370.912925,128.7065 370.912925,129.478462 L370.912925,135.071329 L369.038101,135.071329 Z M359.451374,120.048942 C359.451374,120.616335 359.973232,121.12969 360.549209,121.12969 C361.12132,121.12969 361.643178,120.616335 361.643178,120.048942 C361.643178,119.48155 361.12132,118.964335 360.549209,118.964335 C359.973232,118.964335 359.451374,119.48155 359.451374,120.048942 Z M358.307152,120.048942 C358.307152,118.836962 359.323809,117.833411 360.549209,117.833411 C361.770744,117.833411 362.787401,118.836962 362.787401,120.048942 C362.787401,121.260923 361.770744,122.264474 360.549209,122.264474 C359.323809,122.264474 358.307152,121.260923 358.307152,120.048942 Z M360.127857,125.769183 C358.283958,125.769183 356.586953,127.108538 356.586953,129.713911 C356.586953,132.006639 357.889665,133.731975 360.127857,133.731975 C362.424033,133.731975 363.726745,131.848387 363.726745,129.73707 C363.726745,126.981164 361.797803,125.769183 360.127857,125.769183 Z M363.618508,125.896557 L363.618508,124.375791 L365.497197,124.375791 L365.497197,135.071329 L363.618508,135.071329 L363.618508,133.577582 C362.992278,134.376563 361.824862,135.383974 359.919114,135.383974 C357.186123,135.383974 354.661876,133.473367 354.661876,129.713911 C354.661876,126.027791 357.16293,124.121044 359.919114,124.121044 C362.002681,124.121044 363.127575,125.251969 363.618508,125.896557 Z M347.630321,135.071329 L347.630321,124.375791 L349.505145,124.375791 L349.505145,125.537595 C349.686829,125.251969 350.494742,124.121044 351.95208,124.121044 C352.524191,124.121044 353.146555,124.325614 353.622026,124.557202 L352.732934,126.232361 C352.319313,125.950594 351.92502,125.873398 351.638965,125.873398 C350.881304,125.873398 350.413564,126.182183 350.127509,126.541146 C349.814394,126.954145 349.505145,127.67593 349.505145,129.428285 L349.505145,135.071329 L347.630321,135.071329 Z M345.960375,126.077968 L343.304697,126.077968 L343.304697,135.071329 L341.429873,135.071329 L341.429873,126.077968 L340.390023,126.077968 L340.390023,124.375791 L341.429873,124.375791 L341.429873,119.713139 C341.429873,118.732747 341.507186,117.497607 342.47359,116.698626 C342.995448,116.258607 343.776302,116 344.630603,116 C345.310952,116 345.751632,116.158252 345.960375,116.235449 L345.960375,118.037981 C345.573814,117.883588 345.125402,117.806392 344.738841,117.806392 C344.321354,117.806392 343.82269,117.910607 343.5405,118.373784 C343.304697,118.759765 343.304697,119.354176 343.304697,119.917709 L343.304697,124.375791 L345.960375,124.375791 L345.960375,126.077968 Z M323.068198,135.071329 L323.068198,124.375791 L324.943022,124.375791 L324.943022,125.614791 C325.283196,125.174772 326.245735,124.121044 328.03938,124.121044 C329.315034,124.121044 330.490181,124.634399 331.139604,125.587772 C331.688522,126.386753 331.765834,127.26679 331.765834,128.451752 L331.765834,135.071329 L329.89101,135.071329 L329.89101,128.50193 C329.89101,127.857341 329.836892,127.108538 329.396212,126.541146 C329.032844,126.077968 328.460732,125.769183 327.625759,125.769183 C326.976336,125.769183 326.268928,125.950594 325.723877,126.595183 C324.993275,127.444342 324.943022,128.7065 324.943022,129.478462 L324.943022,135.071329 L323.068198,135.071329 Z M314.474935,125.769183 C312.491874,125.769183 310.671169,127.162575 310.671169,129.764088 C310.671169,132.39262 312.542127,133.731975 314.474935,133.731975 C316.423205,133.731975 318.274835,132.365601 318.274835,129.764088 C318.274835,127.135557 316.450264,125.769183 314.474935,125.769183 Z M314.474935,135.383974 C311.193027,135.383974 308.742226,133.01019 308.742226,129.764088 C308.742226,126.517987 311.165968,124.121044 314.474935,124.121044 C317.780036,124.121044 320.203777,126.517987 320.203777,129.764088 C320.203777,133.01019 317.752977,135.383974 314.474935,135.383974 Z M303.612554,120.330709 C303.612554,119.608924 304.207859,119.018373 304.942326,119.018373 C305.669062,119.018373 306.272098,119.608924 306.272098,120.330709 C306.272098,121.052493 305.669062,121.646904 304.942326,121.646904 C304.207859,121.646904 303.612554,121.052493 303.612554,120.330709 Z M304.002982,135.071329 L305.877805,135.071329 L305.877805,124.375791 L304.002982,124.375791 L304.002982,135.071329 Z M302.232529,126.077968 L300.35384,126.077968 L300.35384,135.071329 L298.482882,135.071329 L298.482882,126.077968 L297.334794,126.077968 L297.334794,124.375791 L298.482882,124.375791 L298.482882,120.51212 L300.35384,120.51212 L300.35384,124.375791 L302.232529,124.375791 L302.232529,126.077968 Z M289.522385,125.769183 C287.670755,125.769183 285.981481,127.108538 285.981481,129.713911 C285.981481,132.006639 287.280328,133.731975 289.522385,133.731975 C291.810829,133.731975 293.113542,131.848387 293.113542,129.73707 C293.113542,126.981164 291.188465,125.769183 289.522385,125.769183 Z M293.013036,125.896557 L293.013036,124.375791 L294.883994,124.375791 L294.883994,135.071329 L293.013036,135.071329 L293.013036,133.577582 C292.386806,134.376563 291.215525,135.383974 289.313642,135.383974 C286.580651,135.383974 284.048673,133.473367 284.048673,129.713911 C284.048673,126.027791 286.553592,124.121044 289.313642,124.121044 C291.397208,124.121044 292.518237,125.251969 293.013036,125.896557 Z M266.889204,135.071329 L266.889204,124.375791 L268.760163,124.375791 L268.760163,125.510576 C269.363199,124.634399 270.298678,124.121044 271.446765,124.121044 C273.398901,124.121044 274.179756,125.483557 274.388499,125.846379 C275.432215,124.221399 276.916612,124.121044 277.643348,124.121044 C280.847943,124.121044 281.161058,126.776594 281.161058,128.2935 L281.161058,135.071329 L279.286234,135.071329 L279.286234,128.579126 C279.286234,127.367145 279.127744,125.769183 277.357292,125.769183 C275.196413,125.769183 274.96061,127.830323 274.96061,129.1195 L274.96061,135.071329 L273.089652,135.071329 L273.089652,128.733519 C273.089652,127.984715 273.112846,125.769183 271.133651,125.769183 C268.995965,125.769183 268.760163,127.961556 268.760163,129.246874 L268.760163,135.071329 L266.889204,135.071329 Z M259.177301,135.071329 L259.177301,124.375791 L261.052125,124.375791 L261.052125,125.537595 C261.233809,125.251969 262.041722,124.121044 263.502925,124.121044 C264.071171,124.121044 264.701266,124.325614 265.169005,124.557202 L264.283779,126.232361 C263.866293,125.950594 263.475866,125.873398 263.18981,125.873398 C262.436015,125.873398 261.968276,126.182183 261.678354,126.541146 C261.36524,126.954145 261.052125,127.67593 261.052125,129.428285 L261.052125,135.071329 L259.177301,135.071329 Z M250.584037,125.769183 C248.604842,125.769183 246.780271,127.162575 246.780271,129.764088 C246.780271,132.39262 248.655095,133.731975 250.584037,133.731975 C252.536173,133.731975 254.387803,132.365601 254.387803,129.764088 C254.387803,127.135557 252.563232,125.769183 250.584037,125.769183 Z M250.584037,135.383974 C247.302129,135.383974 244.855195,133.01019 244.855195,129.764088 C244.855195,126.517987 247.27507,124.121044 250.584037,124.121044 C253.893004,124.121044 256.31288,126.517987 256.31288,129.764088 C256.31288,133.01019 253.865945,135.383974 250.584037,135.383974 Z M243.865597,126.077968 L241.206053,126.077968 L241.206053,135.071329 L239.33123,135.071329 L239.33123,126.077968 L238.291379,126.077968 L238.291379,124.375791 L239.33123,124.375791 L239.33123,119.713139 C239.33123,118.732747 239.412408,117.497607 240.374946,116.698626 C240.892938,116.258607 241.677658,116 242.535825,116 C243.212308,116 243.652988,116.158252 243.865597,116.235449 L243.865597,118.037981 C243.471304,117.883588 243.030624,117.806392 242.640197,117.806392 C242.22271,117.806392 241.727911,117.910607 241.441856,118.373784 C241.206053,118.759765 241.206053,119.354176 241.206053,119.917709 L241.206053,124.375791 L243.865597,124.375791 L243.865597,126.077968 Z M227.038572,135.071329 L227.038572,124.375791 L228.913395,124.375791 L228.913395,125.614791 C229.253569,125.174772 230.216108,124.121044 232.013619,124.121044 C233.289272,124.121044 234.460554,124.634399 235.109977,125.587772 C235.658895,126.386753 235.736207,127.26679 235.736207,128.451752 L235.736207,135.071329 L233.861383,135.071329 L233.861383,128.50193 C233.861383,127.857341 233.807265,127.108538 233.366585,126.541146 C233.003217,126.077968 232.431106,125.769183 231.596133,125.769183 C230.942843,125.769183 230.239301,125.950594 229.69425,126.595183 C228.963648,127.444342 228.913395,128.7065 228.913395,129.478462 L228.913395,135.071329 L227.038572,135.071329 Z M221.232417,120.330709 C221.232417,119.608924 221.831587,119.018373 222.558323,119.018373 C223.288924,119.018373 223.888095,119.608924 223.888095,120.330709 C223.888095,121.052493 223.288924,121.646904 222.558323,121.646904 C221.831587,121.646904 221.232417,121.052493 221.232417,120.330709 Z M221.618978,135.071329 L223.493802,135.071329 L223.493802,124.375791 L221.618978,124.375791 L221.618978,135.071329 Z M218.445308,126.05095 L216.906793,126.849931 C216.647796,126.232361 216.098879,125.769183 215.399202,125.769183 C214.718854,125.769183 214.09649,126.155164 214.09649,126.981164 C214.09649,127.753126 214.618348,127.984715 215.839883,128.50193 C217.401591,129.146518 218.132193,129.636715 218.545814,130.150069 C219.017419,130.717462 219.12179,131.284854 219.12179,131.875405 C219.12179,134.117956 217.478904,135.383974 215.399202,135.383974 C214.950791,135.383974 212.534781,135.329937 211.61863,132.647368 L213.234458,131.97962 C213.443201,132.547013 214.069431,133.731975 215.418531,133.731975 C216.647796,133.731975 217.192848,132.828779 217.192848,132.029798 C217.192848,131.026247 216.462247,130.690443 215.44559,130.254284 C214.142877,129.686892 213.315636,129.273892 212.816971,128.683341 C212.399485,128.166126 212.322172,127.648912 212.322172,127.108538 C212.322172,125.22881 213.648078,124.121044 215.472649,124.121044 C216.048626,124.121044 217.583275,124.221399 218.445308,126.05095 Z M206.643583,120.330709 C206.643583,119.608924 207.242753,119.018373 207.973355,119.018373 C208.70009,119.018373 209.299261,119.608924 209.299261,120.330709 C209.299261,121.052493 208.70009,121.646904 207.973355,121.646904 C207.242753,121.646904 206.643583,121.052493 206.643583,120.330709 Z M207.037876,135.071329 L208.912699,135.071329 L208.912699,124.375791 L207.037876,124.375791 L207.037876,135.071329 Z M199.325972,135.071329 L199.325972,124.375791 L201.200796,124.375791 L201.200796,125.537595 C201.386345,125.251969 202.194259,124.121044 203.651596,124.121044 C204.223707,124.121044 204.846071,124.325614 205.313811,124.557202 L204.43245,126.232361 C204.011098,125.950594 203.624537,125.873398 203.338481,125.873398 C202.580821,125.873398 202.113081,126.182183 201.827025,126.541146 C201.513911,126.954145 201.200796,127.67593 201.200796,129.428285 L201.200796,135.071329 L199.325972,135.071329 Z M186.925077,117.883588 L186.925077,125.251969 L194.323865,117.883588 L196.92929,117.883588 L188.803766,125.896557 L197.192152,135.071329 L194.532608,135.071329 L187.423741,127.185734 L186.925077,127.67593 L186.925077,135.071329 L185,135.071329 L185,117.883588 L186.925077,117.883588 Z" id="Fill-6" fill="#000"></path>
        </g>
    </g>
</svg>